<?xml version="1.0" standalone="no"?>
<!DOCTYPE svg PUBLIC "-//W3C//DTD SVG 20010904//EN"
 "http://www.w3.org/TR/2001/REC-SVG-20010904/DTD/svg10.dtd">
<svg version="1.0" xmlns="http://www.w3.org/2000/svg"
 width="905.000000pt" height="901.000000pt" viewBox="0 0 905.000000 901.000000"
 preserveAspectRatio="xMidYMid meet">
<metadata>
Created by potrace 1.16, written by Peter Selinger 2001-2019
</metadata>
<g transform="translate(0.000000,901.000000) scale(0.100000,-0.100000)"
fill="#000000" stroke="none">
<path d="M5 4505 c0 -2481 1 -3497 2 -2258 2 1238 2 3268 0 4510 -1 1242 -2
229 -2 -2252z"/>
<path d="M2292 8908 c-15 -15 -16 -45 -1 -54 6 -3 19 -25 30 -48 10 -22 24
-50 31 -61 7 -11 19 -31 28 -45 9 -15 17 -60 20 -110 l5 -85 35 0 c39 0 47 15
50 100 1 35 10 65 30 100 59 102 92 175 87 190 -4 9 -19 15 -37 15 -24 0 -35
-8 -56 -41 -14 -23 -31 -55 -36 -70 -5 -16 -12 -29 -15 -29 -19 0 -47 28 -62
63 -28 64 -83 101 -109 75z"/>
<path d="M2678 8795 c-20 -13 -46 -41 -58 -60 -19 -31 -22 -46 -17 -98 5 -57
9 -65 46 -99 34 -30 50 -37 93 -40 44 -3 57 1 98 29 50 34 60 56 60 138 0 65
-16 97 -64 128 -56 35 -108 36 -158 2z m124 -84 c13 -34 5 -121 -13 -132 -20
-13 -53 -11 -73 4 -12 9 -20 31 -24 65 -4 45 -2 53 22 75 33 31 73 26 88 -12z"/>
<path d="M3150 8809 c-46 -19 -60 -39 -60 -89 0 -26 6 -52 13 -58 6 -5 43 -20
80 -32 50 -17 67 -27 65 -39 -5 -24 -54 -25 -93 -2 -43 25 -65 18 -65 -20 0
-43 47 -69 125 -69 53 0 64 4 93 30 29 26 33 35 30 72 -2 33 -8 45 -26 54 -13
6 -29 17 -35 23 -6 6 -25 11 -42 11 -17 0 -40 6 -50 14 -16 12 -17 16 -6 30
17 20 50 20 79 0 30 -21 66 -15 70 12 4 31 -63 74 -114 73 -21 0 -50 -5 -64
-10z"/>
<path d="M3460 8802 c-46 -24 -79 -90 -80 -159 0 -47 3 -55 45 -97 33 -34 53
-46 77 -48 61 -3 90 2 120 23 24 18 29 27 26 57 -4 45 -17 49 -52 17 -30 -28
-81 -33 -109 -12 -16 11 -16 15 -4 32 12 15 29 20 87 22 93 4 112 18 97 71
-27 95 -123 138 -207 94z"/>
<path d="M3903 8792 c-32 -21 -44 -36 -52 -69 -33 -126 20 -223 120 -223 25 0
50 5 57 12 18 18 30 -1 34 -52 3 -44 4 -45 41 -48 25 -2 37 1 38 10 4 33 -3
384 -7 390 -9 14 -49 9 -73 -8 -22 -16 -25 -16 -51 0 -38 22 -58 20 -107 -12z
m132 -77 c28 -28 32 -63 10 -105 -18 -34 -43 -44 -78 -31 -46 18 -49 133 -4
151 35 14 46 12 72 -15z"/>
<path d="M4227 8809 c-16 -10 -18 -22 -13 -128 3 -64 8 -124 11 -132 3 -9 26
-26 51 -38 43 -22 45 -22 90 -5 34 13 48 14 56 6 18 -18 56 -14 67 6 10 19 17
124 13 220 -2 57 -4 63 -28 72 -17 7 -32 7 -45 0 -16 -9 -19 -22 -19 -95 0
-105 -9 -131 -49 -137 -54 -8 -59 2 -60 114 -1 56 -5 105 -9 109 -15 14 -48
18 -65 8z"/>
<path d="M4601 8789 c-50 -37 -61 -61 -61 -134 0 -73 12 -99 59 -130 54 -36
114 -37 174 -2 38 22 44 30 39 52 -6 31 -37 52 -49 32 -20 -34 -100 -50 -121
-24 -6 7 -9 22 -6 34 5 18 14 21 73 21 77 1 121 15 121 37 0 9 -9 36 -20 60
-15 32 -32 50 -60 65 -57 29 -98 26 -149 -11z"/>
<path d="M5051 8789 c-42 -32 -43 -32 -23 -52 17 -17 24 -18 53 -8 44 15 84
14 98 -3 10 -12 8 -17 -8 -25 -11 -6 -31 -11 -44 -11 -36 0 -115 -38 -128 -61
-6 -12 -8 -36 -4 -55 4 -26 16 -39 51 -60 45 -26 45 -26 84 -9 33 15 44 16 69
6 22 -10 34 -10 50 -1 19 10 21 19 21 123 -1 103 -3 114 -24 138 -53 61 -127
67 -195 18z"/>
<path d="M5444 8805 c-4 -9 1 -33 10 -53 8 -20 20 -55 25 -77 5 -22 18 -62 29
-90 12 -27 23 -58 26 -68 5 -15 15 -18 52 -15 l47 3 29 70 c15 39 28 76 28 83
0 7 9 30 20 52 37 73 19 124 -39 105 -13 -4 -23 -25 -34 -70 -16 -65 -43 -118
-56 -110 -4 2 -13 28 -20 57 -21 90 -41 123 -79 126 -22 2 -34 -2 -38 -13z"/>
<path d="M5860 8812 c-27 -13 -55 -36 -78 -66 -17 -23 -22 -42 -22 -92 0 -34
3 -70 6 -79 9 -22 82 -71 119 -79 65 -14 145 33 145 86 0 23 -4 28 -25 28 -14
0 -25 -4 -25 -8 0 -13 -47 -32 -79 -32 -35 0 -52 19 -44 48 5 21 11 22 94 22
86 0 89 1 95 24 16 66 -52 146 -130 152 -22 2 -48 0 -56 -4z"/>
<path d="M6175 8801 c-16 -10 -42 -33 -57 -51 -52 -63 -29 -192 42 -233 14 -8
44 -18 68 -22 35 -6 49 -3 75 15 47 32 79 80 65 97 -16 20 -47 16 -80 -12 -37
-31 -58 -32 -86 -2 -29 31 -30 99 -2 127 28 28 74 26 94 -5 18 -28 57 -33 75
-11 16 19 3 43 -44 85 -42 37 -102 42 -150 12z"/>
<path d="M6525 8813 c-55 -15 -105 -88 -105 -153 0 -63 54 -141 113 -163 32
-12 105 5 137 32 29 24 30 28 20 58 l-11 31 -36 -24 c-40 -27 -94 -32 -113 -9
-25 30 -4 43 77 50 86 8 103 16 103 50 0 88 -94 154 -185 128z"/>
<path d="M6803 8788 c-34 -36 -41 -59 -30 -100 7 -27 61 -60 122 -74 41 -9 45
-12 38 -29 -8 -22 -62 -18 -101 5 -27 16 -37 18 -48 9 -46 -38 19 -99 110
-102 42 -2 57 3 88 26 42 33 52 54 42 92 -5 20 -20 33 -58 51 -28 13 -58 24
-67 24 -8 0 -23 6 -32 13 -16 11 -16 14 -3 32 14 20 16 20 64 3 62 -23 69 -22
82 1 8 17 4 24 -36 50 -65 44 -128 44 -171 -1z"/>
<path d="M2196 8202 c-3 -5 -6 -94 -7 -198 l-1 -189 27 -10 c17 -6 32 -6 43 1
15 10 17 32 15 199 -1 143 -5 190 -15 196 -17 11 -55 11 -62 1z"/>
<path d="M1932 8100 c-35 -13 -49 -27 -74 -70 -37 -65 -33 -113 15 -177 39
-51 73 -65 142 -57 75 9 126 59 94 91 -12 12 -45 5 -98 -22 -33 -17 -33 -17
-59 9 -39 38 -19 51 79 51 92 0 106 11 94 72 -9 48 -30 79 -63 91 -72 27 -87
28 -130 12z"/>
<path d="M1630 8098 c-14 -5 -46 -7 -71 -4 -71 9 -72 4 -70 -197 2 -154 4
-174 21 -191 18 -18 20 -18 45 -2 24 16 26 22 20 57 l-7 39 72 -2 c113 -2 150
36 150 157 -1 62 -4 74 -28 102 -31 37 -93 56 -132 41z m48 -88 c48 -64 11
-164 -51 -141 -55 21 -65 114 -16 154 29 24 42 22 67 -13z"/>
<path d="M2441 8100 c-75 -12 -132 -104 -116 -187 8 -46 67 -109 108 -117 78
-15 187 36 171 79 -8 19 -62 20 -83 1 -9 -8 -27 -17 -41 -21 -21 -5 -30 0 -48
24 -29 40 -17 46 78 44 41 -1 81 3 88 9 6 6 12 32 12 57 0 40 -5 52 -32 78
-37 35 -73 44 -137 33z"/>
<path d="M2753 8103 c-30 -6 -73 -48 -73 -72 0 -32 45 -39 75 -11 15 14 33 20
51 18 24 -2 29 -8 29 -31 0 -28 -1 -28 -64 -32 -71 -3 -86 -13 -106 -71 -12
-36 -11 -40 11 -70 27 -34 78 -51 117 -38 12 4 47 8 77 8 l55 1 3 118 c2 72
-2 125 -8 138 -21 38 -93 56 -167 42z"/>
<path d="M3275 8091 c-35 -16 -43 -16 -61 -4 -22 14 -189 13 -213 -1 -7 -5
-11 -50 -11 -135 0 -144 7 -163 58 -145 26 9 27 12 28 91 0 45 7 95 14 113 11
27 17 31 39 25 14 -4 28 -9 31 -12 3 -2 7 -53 10 -111 l5 -107 28 -3 c48 -6
57 11 57 109 0 76 3 92 20 109 11 11 24 20 29 20 35 0 59 -84 47 -167 -4 -28
-2 -51 5 -59 14 -17 75 -18 81 -1 3 6 4 58 2 114 -2 95 -16 151 -42 167 -25
16 -90 14 -127 -3z"/>
<path d="M3588 8098 c-24 -6 -47 -23 -65 -46 -24 -32 -28 -46 -28 -102 0 -56
4 -70 28 -102 34 -44 53 -51 131 -51 54 1 62 4 95 37 35 36 36 38 36 116 0 78
-1 80 -35 114 -40 38 -99 51 -162 34z m96 -80 c10 -13 16 -44 16 -75 0 -42 -4
-55 -22 -67 -30 -21 -47 -20 -75 6 -17 16 -23 33 -23 63 0 78 68 125 104 73z"/>
<path d="M4718 8093 c-64 -31 -83 -66 -83 -151 0 -74 0 -74 39 -108 37 -32 44
-34 112 -34 67 0 75 2 103 30 17 18 28 37 24 45 -7 19 -67 20 -82 1 -19 -23
-59 -25 -86 -4 -14 11 -25 25 -25 32 0 17 78 28 131 20 49 -8 69 7 69 54 0 37
-31 97 -58 111 -37 20 -106 22 -144 4z"/>
<path d="M5253 8090 c-77 -40 -101 -132 -58 -224 26 -55 55 -70 133 -68 72 2
88 12 128 74 35 54 32 113 -6 166 -35 49 -55 60 -112 68 -32 4 -54 0 -85 -16z
m116 -79 c43 -61 14 -151 -49 -151 -22 0 -31 8 -46 42 -22 48 -20 72 8 110 26
37 61 37 87 -1z"/>
<path d="M6459 8104 c-36 -7 -74 -43 -94 -89 -14 -34 -15 -49 -5 -102 10 -51
18 -67 44 -86 60 -46 173 -41 213 10 40 49 -9 72 -72 33 -39 -24 -79 -15 -90
21 -10 31 10 39 85 35 83 -4 110 6 110 39 0 36 -35 101 -65 121 -26 17 -83 25
-126 18z"/>
<path d="M7248 8089 c-59 -30 -71 -57 -66 -142 6 -124 58 -169 175 -151 57 8
103 51 95 90 -6 31 -31 31 -83 -1 -49 -32 -76 -26 -95 21 -11 25 -12 44 -5 75
15 65 49 76 100 33 34 -28 68 -29 85 -2 23 37 -72 98 -149 97 -11 0 -37 -9
-57 -20z"/>
<path d="M7585 8092 c-93 -44 -110 -187 -32 -259 63 -57 163 -54 221 6 26 27
28 36 29 105 0 109 -31 149 -128 161 -38 4 -60 1 -90 -13z m101 -60 c38 -25
38 -131 0 -157 -26 -19 -36 -19 -64 3 -46 36 -21 162 32 162 11 0 26 -4 32 -8z"/>
<path d="M3892 8090 c-24 -10 -42 -46 -42 -84 0 -37 36 -75 78 -81 82 -13 83
-14 80 -43 -4 -35 -42 -42 -69 -13 -22 23 -50 27 -80 11 -18 -10 -18 -13 -4
-39 19 -37 31 -41 125 -41 75 0 79 1 104 31 52 61 25 124 -59 140 -30 6 -60
19 -74 33 -23 24 -23 24 -3 35 22 12 72 -1 72 -18 0 -14 29 -22 56 -15 37 9
32 49 -8 74 -36 22 -133 27 -176 10z"/>
<path d="M4293 8085 c-11 -8 -14 -46 -14 -177 -1 -92 2 -176 5 -186 9 -28 44
-34 66 -12 15 15 18 28 13 56 l-6 37 62 -6 c82 -9 112 7 146 75 22 43 26 62
21 97 -7 54 -41 109 -73 122 -32 12 -202 7 -220 -6z m179 -72 c51 -49 23 -143
-43 -143 -23 0 -32 7 -47 38 -22 45 -19 72 13 106 30 33 42 33 77 -1z"/>
<path d="M4988 8089 c-8 -5 -11 -50 -11 -140 1 -113 4 -134 18 -142 11 -6 25
-6 40 1 20 9 23 20 27 89 6 95 21 130 59 138 34 8 42 18 34 44 -5 17 -15 19
-81 18 -41 -1 -80 -4 -86 -8z"/>
<path d="M5684 8067 c-29 -26 -37 -42 -41 -79 -8 -68 4 -114 38 -153 29 -33
34 -34 107 -37 l77 -3 -2 -29 c-3 -43 14 -68 45 -64 19 2 28 11 34 33 12 40
11 322 -1 342 -7 13 -30 17 -115 20 l-107 3 -35 -33z m151 -52 c31 -30 33 -82
5 -117 -42 -54 -94 -33 -105 43 -5 38 -3 48 20 72 32 33 49 34 80 2z"/>
<path d="M6022 8088 c-19 -19 -16 -192 4 -234 22 -47 38 -57 87 -56 23 1 69 2
102 2 32 1 65 6 72 12 16 13 17 256 1 275 -15 18 -65 16 -72 -3 -3 -9 -6 -53
-6 -99 0 -75 -2 -85 -22 -99 -59 -42 -88 -7 -88 105 0 90 -8 109 -45 109 -12
0 -26 -5 -33 -12z"/>
<path d="M6825 8077 c-3 -12 -4 -78 -3 -147 l3 -125 34 -3 c20 -2 37 2 42 10
5 7 9 50 9 96 0 87 -2 83 65 137 43 34 23 49 -70 52 -70 2 -75 1 -80 -20z"/>
<path d="M7060 8080 c-6 -12 -9 -71 -8 -147 l3 -128 28 -3 c50 -6 55 8 56 142
1 68 -1 130 -5 140 -9 23 -61 21 -74 -4z"/>
<path d="M3640 7511 c-9 -7 -15 -27 -15 -58 l0 -48 -78 0 c-71 0 -80 -2 -98
-25 -11 -14 -24 -35 -29 -48 -16 -38 -11 -124 9 -169 25 -54 62 -65 186 -55
l90 7 0 200 0 200 -25 3 c-14 1 -32 -2 -40 -7z m-44 -186 c21 -21 25 -33 22
-72 -2 -37 -9 -50 -31 -67 -26 -19 -30 -19 -55 -5 -25 14 -27 20 -27 73 1 49
4 61 24 77 30 25 37 24 67 -6z"/>
<path d="M4585 7510 c-9 -15 -8 -381 1 -390 17 -15 63 -20 70 -8 5 7 9 47 10
88 3 107 3 105 17 122 48 62 97 -1 97 -126 0 -58 3 -75 16 -80 15 -6 63 -8 65
-3 0 1 3 49 5 106 4 92 2 107 -17 137 -29 47 -51 56 -122 52 l-62 -3 -3 50
c-2 27 -9 53 -15 57 -17 11 -55 10 -62 -2z"/>
<path d="M5872 7410 c-42 -10 -72 -37 -72 -66 0 -34 36 -41 72 -14 35 26 73
21 81 -12 4 -12 5 -24 3 -25 -2 -2 -32 -7 -67 -11 -105 -13 -155 -80 -103
-141 29 -35 75 -47 126 -33 20 5 54 6 76 2 25 -4 45 -3 51 3 7 7 11 57 11 122
0 108 -1 111 -29 143 -21 22 -39 32 -60 32 -16 0 -35 2 -43 4 -7 2 -28 0 -46
-4z"/>
<path d="M2143 7403 c-72 -14 -106 -194 -49 -260 48 -54 184 -57 227 -4 24 29
24 43 1 64 -16 14 -20 14 -50 0 -17 -8 -32 -19 -32 -24 0 -18 -59 -9 -70 10
-18 35 -12 119 10 141 27 27 36 25 77 -10 38 -34 55 -37 73 -15 18 22 -11 82
-46 95 -25 10 -98 11 -141 3z"/>
<path d="M2412 7398 c-8 -8 -12 -49 -12 -119 0 -120 12 -147 77 -174 30 -13
39 -13 70 0 28 12 44 13 75 4 64 -17 68 -8 68 145 0 139 -5 156 -45 156 -37 0
-45 -19 -45 -111 0 -66 -4 -91 -16 -103 -18 -18 -47 -20 -75 -6 -17 9 -19 22
-19 103 0 98 -7 117 -45 117 -12 0 -26 -5 -33 -12z"/>
<path d="M2813 7400 c-33 -13 -58 -57 -44 -74 22 -26 61 -26 78 1 11 17 23 23
42 21 22 -2 26 -8 26 -33 0 -29 -1 -30 -50 -30 -62 0 -99 -22 -115 -69 -9 -28
-8 -40 5 -65 8 -17 24 -35 34 -41 30 -15 203 -1 218 18 9 11 11 44 7 116 -6
112 -15 139 -51 155 -28 13 -119 14 -150 1z"/>
<path d="M3083 7392 c-10 -10 -12 -44 -10 -135 1 -67 6 -128 10 -134 10 -16
63 -17 73 -2 3 6 7 47 8 92 2 92 15 127 50 127 41 0 56 -38 54 -131 -1 -75 0
-83 20 -92 11 -5 32 -7 46 -3 26 6 26 8 26 99 0 99 -17 174 -42 188 -25 14
-219 6 -235 -9z"/>
<path d="M3845 7400 c-53 -22 -78 -83 -70 -166 6 -53 12 -67 41 -95 32 -31 38
-33 109 -34 71 0 76 2 107 32 30 30 33 39 36 105 3 68 2 76 -27 114 -33 44
-59 55 -135 53 -22 0 -50 -4 -61 -9z m110 -64 c13 -9 20 -30 23 -69 4 -50 2
-58 -22 -82 -27 -27 -61 -27 -78 -1 -14 20 -20 76 -14 112 9 47 54 67 91 40z"/>
<path d="M4325 7400 c-27 -11 -59 -48 -74 -86 -19 -49 1 -141 39 -179 27 -27
35 -29 104 -30 63 0 79 3 95 20 28 30 34 60 16 79 -15 14 -19 14 -45 1 -16 -8
-32 -19 -35 -25 -11 -18 -56 -11 -76 13 -23 27 -24 68 -3 112 21 44 49 47 100
11 45 -30 58 -29 67 5 4 16 -3 31 -28 56 -29 29 -39 33 -86 32 -30 0 -63 -4
-74 -9z"/>
<path d="M4949 7397 c-13 -10 -16 -36 -17 -139 -1 -119 0 -128 20 -142 18 -13
25 -13 46 -2 25 13 25 15 27 144 2 128 1 131 -22 141 -30 14 -34 13 -54 -2z"/>
<path d="M5079 7387 c-11 -19 -9 -250 1 -268 4 -6 22 -9 41 -7 l34 3 5 96 c5
99 17 129 50 129 10 0 27 -8 39 -17 18 -16 21 -29 22 -105 1 -96 9 -112 56
-106 l28 3 3 90 c4 107 -2 146 -27 177 -18 22 -26 23 -131 23 -97 0 -113 -2
-121 -18z"/>
<path d="M5482 7401 c-34 -9 -72 -83 -72 -142 0 -49 29 -125 54 -141 6 -4 46
-8 89 -8 42 0 77 -3 77 -7 0 -5 -11 -21 -24 -37 l-23 -30 -42 22 c-51 27 -81
28 -113 3 -22 -18 -43 -20 -201 -22 -156 -2 -179 0 -196 15 -19 17 -20 17 -34
-10 -12 -23 -27 -31 -81 -44 -76 -19 -92 -11 -81 38 4 21 2 31 -9 35 -17 7
-41 -17 -32 -32 12 -19 -7 -70 -35 -90 -24 -18 -32 -19 -53 -10 -23 11 -30 8
-81 -43 -30 -31 -67 -59 -82 -63 -14 -3 -38 -15 -51 -26 -14 -10 -28 -19 -33
-19 -26 0 -193 -136 -244 -199 -22 -27 -55 -56 -73 -65 -18 -9 -37 -27 -42
-40 -11 -29 -58 -47 -121 -46 -24 1 -135 -2 -246 -6 -111 -3 -213 -4 -228 0
-17 4 -31 18 -41 41 -7 18 -18 36 -24 40 -5 3 -14 24 -21 47 -14 55 -52 103
-104 133 -34 20 -55 25 -114 25 -111 0 -142 -25 -159 -129 -6 -35 -17 -68 -24
-73 -7 -5 -42 -7 -78 -3 -36 3 -112 8 -170 11 -83 4 -129 13 -218 42 -62 20
-111 40 -109 45 5 15 133 44 227 51 102 8 120 13 120 31 0 26 -33 34 -110 25
-41 -4 -131 -11 -200 -15 -208 -11 -263 -54 -142 -111 53 -25 55 -27 36 -41
-15 -12 -39 -14 -112 -10 -52 3 -107 1 -125 -5 -18 -6 -68 -12 -112 -13 -133
-6 -258 -22 -297 -39 -21 -9 -49 -16 -63 -16 -60 0 -247 -115 -305 -187 -47
-60 -54 -63 -130 -63 -31 0 -74 -7 -93 -15 -20 -8 -50 -15 -68 -15 -23 0 -42
-11 -74 -42 -24 -24 -52 -50 -62 -58 -10 -8 -31 -32 -47 -54 -26 -35 -29 -46
-30 -125 -1 -73 2 -91 21 -122 27 -42 28 -57 9 -101 -8 -18 -19 -47 -25 -63
-8 -20 -34 -46 -80 -76 -91 -62 -172 -89 -265 -89 -62 0 -84 -5 -133 -29 -80
-40 -144 -114 -180 -208 -12 -32 -11 -126 2 -185 13 -58 69 -165 121 -233 17
-22 37 -51 44 -65 7 -14 23 -37 35 -52 13 -15 32 -47 45 -72 12 -25 26 -48 31
-52 5 -3 9 -17 9 -32 0 -15 12 -49 25 -77 14 -27 25 -55 25 -61 0 -6 6 -17 14
-23 8 -7 17 -28 21 -48 3 -20 13 -45 20 -57 7 -12 17 -38 20 -58 4 -21 13 -42
21 -49 8 -6 14 -17 14 -23 0 -7 9 -29 19 -50 11 -21 23 -51 26 -66 3 -16 12
-34 20 -40 8 -6 17 -26 21 -43 3 -18 15 -43 25 -56 11 -13 19 -31 19 -41 0
-10 8 -28 19 -41 10 -13 21 -34 25 -46 4 -11 13 -27 21 -33 8 -7 15 -22 15
-34 0 -13 18 -47 40 -77 21 -30 49 -69 62 -87 41 -58 53 -73 87 -115 19 -23
40 -58 48 -77 9 -19 30 -54 49 -77 19 -23 34 -44 34 -48 0 -4 17 -28 38 -54
22 -25 52 -66 68 -91 16 -24 36 -52 44 -61 64 -71 98 -109 115 -130 197 -244
186 -228 171 -257 -15 -30 -97 -121 -221 -247 -44 -44 -93 -101 -110 -126 -28
-42 -86 -116 -131 -169 -12 -14 -37 -43 -56 -65 -19 -22 -48 -62 -64 -90 -15
-27 -32 -51 -36 -53 -7 -3 -37 -52 -95 -155 -7 -12 -13 -34 -13 -48 0 -15 -7
-40 -15 -55 -19 -37 -19 -69 -1 -97 12 -18 16 -94 19 -407 3 -212 1 -452 -4
-535 -5 -82 -10 -243 -11 -358 l-3 -207 148 0 c133 0 147 2 147 18 3 94 21
162 42 162 7 0 24 -13 38 -30 30 -36 66 -39 104 -9 33 26 33 54 1 75 -29 19
-27 20 -49 -24 -15 -28 -20 -31 -32 -21 -11 9 -14 23 -9 45 4 25 1 36 -13 46
-10 7 -26 25 -35 39 -16 24 -16 27 2 43 11 10 30 17 43 16 54 -5 65 9 23 28
-25 12 -25 12 -8 38 14 21 15 33 6 65 -12 47 -6 89 13 89 9 0 14 12 14 33 0
18 7 57 16 86 8 30 16 83 16 119 0 36 6 80 14 98 23 54 76 71 109 34 17 -19
16 -20 -19 -41 -34 -20 -36 -23 -23 -43 20 -29 58 -27 73 3 16 31 29 38 77 42
31 3 42 -1 57 -20 16 -22 21 -23 46 -13 16 6 46 14 66 18 54 9 63 24 48 79 -8
28 -10 65 -5 99 9 75 -4 91 -26 33 -15 -37 -16 -51 -6 -76 9 -24 8 -36 -4 -63
-15 -30 -17 -31 -26 -13 -8 14 -7 36 0 73 14 65 4 86 -45 90 -52 5 -64 -15
-52 -90 13 -76 -2 -86 -54 -35 -22 22 -61 45 -96 57 -74 25 -84 34 -92 79 -7
38 -38 106 -52 115 -5 3 -14 -6 -21 -20 -8 -18 -18 -24 -34 -22 -17 2 -23 11
-27 42 -4 28 -10 40 -23 42 -47 6 -24 14 43 14 69 0 142 14 166 31 6 5 21 1
35 -9 19 -14 48 -17 149 -18 341 -1 406 -6 303 -23 -62 -10 -54 -31 22 -56
l20 -6 -20 -12 c-11 -6 -38 -11 -60 -11 -34 -1 -42 -5 -53 -29 -12 -25 -12
-38 1 -90 11 -42 13 -76 8 -104 -6 -31 -5 -43 5 -47 17 -6 20 -1 29 51 9 54
19 61 35 22 14 -32 31 -34 40 -3 13 47 25 55 99 65 41 5 87 18 105 29 46 28
130 44 165 32 39 -14 65 2 50 30 -10 19 -7 25 22 49 18 15 39 25 46 22 7 -3
24 2 38 11 13 9 35 16 48 16 15 0 31 10 41 25 15 23 22 25 92 25 45 0 86 -6
102 -14 15 -8 44 -17 64 -21 l36 -7 -15 -30 c-15 -29 -15 -29 -30 -9 -19 27
-29 26 -49 -4 -14 -22 -15 -32 -3 -89 17 -90 9 -100 -69 -76 -49 15 -61 16
-83 4 -22 -11 -30 -11 -44 0 -24 17 -63 8 -71 -16 -4 -13 2 -28 16 -43 l21
-23 -28 -22 c-27 -21 -27 -23 -9 -34 10 -6 28 -21 39 -33 11 -13 25 -23 31
-23 5 0 20 -9 32 -21 19 -18 29 -19 84 -13 42 5 69 13 83 27 20 20 54 20 138
1 21 -5 27 -2 32 16 4 14 0 23 -11 27 -9 3 -25 13 -34 21 -17 14 -16 16 3 43
17 25 27 29 67 30 26 0 65 6 86 12 l40 12 -42 19 -42 19 20 22 20 21 -31 18
c-23 13 -27 21 -19 31 10 13 74 38 121 49 14 3 38 19 55 35 24 25 37 30 77 31
26 0 55 -4 65 -9 38 -20 138 -32 257 -32 l125 1 0 -44 c0 -50 -8 -56 -76 -56
l-44 0 6 -58 c4 -31 10 -61 14 -67 20 -27 19 -63 -1 -81 -19 -17 -20 -25 -13
-115 8 -120 -13 -199 -55 -199 -9 0 -25 -7 -36 -15 -19 -15 -19 -15 3 -31 30
-21 28 -39 -8 -65 -41 -31 -42 -41 -13 -85 17 -24 27 -52 27 -78 l1 -41 48 3
47 4 -12 -26 c-6 -15 -23 -29 -37 -33 -33 -8 -108 -70 -114 -94 -3 -12 4 -21
25 -30 17 -7 34 -25 43 -45 9 -23 23 -35 42 -40 15 -4 34 -11 41 -17 9 -7 20
-6 38 3 19 11 27 11 36 2 7 -7 40 -12 75 -12 53 0 63 3 63 18 0 9 -7 25 -15
35 -13 18 -14 17 -30 -12 -21 -41 -41 -39 -55 5 -10 30 -9 43 5 80 9 24 20 44
25 44 5 0 14 -16 20 -35 19 -57 40 -39 40 35 0 44 8 70 21 70 5 0 9 -8 9 -18
0 -55 82 -89 92 -38 6 31 -50 90 -72 76 -26 -16 -40 -11 -40 15 0 14 6 25 13
25 6 0 29 5 50 11 33 9 36 12 22 25 -8 9 -15 21 -15 28 0 8 -7 19 -15 26 -13
11 -13 15 -3 21 23 15 45 10 83 -21 43 -35 53 -31 71 28 l12 37 1 -52 c1 -31
-4 -53 -11 -55 -16 -6 -17 -100 -1 -105 12 -4 19 8 39 62 6 19 7 19 13 -4 9
-34 36 -49 60 -34 16 10 20 8 30 -15 5 -15 11 -38 13 -51 5 -39 52 -35 90 8
l30 34 -26 20 c-14 10 -24 23 -21 27 3 5 6 32 6 60 2 58 -11 80 -35 60 -22
-17 -45 -6 -60 31 l-13 31 -11 -29 c-5 -15 -13 -36 -16 -46 -3 -10 -10 -15
-16 -12 -13 8 -13 125 0 125 18 0 32 51 19 66 -14 17 -29 9 -29 -15 0 -9 -6
-26 -14 -36 -14 -19 -15 -18 -33 13 -21 37 -29 40 -36 13 -4 -15 -14 -18 -60
-19 -72 0 -94 -13 -107 -62 -13 -47 -27 -52 -36 -12 -11 52 -13 54 -42 49 -15
-3 -35 -1 -44 4 -11 6 -25 6 -36 0 -21 -11 -94 8 -89 24 2 5 20 11 40 13 23 2
41 10 47 21 5 10 22 21 37 24 16 3 38 8 51 12 19 6 24 2 33 -24 6 -17 13 -31
16 -31 3 0 18 14 33 30 23 24 36 30 72 30 63 1 128 15 145 33 8 8 18 39 21 68
l7 54 49 0 c47 0 50 -1 61 -34 15 -45 28 -49 44 -14 13 26 14 27 22 8 4 -11 8
-30 8 -42 1 -12 6 -33 12 -47 10 -21 15 -23 30 -15 29 15 55 -5 71 -53 19 -57
34 -64 102 -49 49 11 56 16 56 36 0 25 -23 38 -70 39 -22 1 -25 6 -28 46 -2
25 1 57 6 70 9 24 10 23 22 -20 8 -25 17 -49 21 -53 11 -13 46 10 65 43 21 35
30 32 39 -17 4 -21 11 -41 16 -44 6 -3 11 -66 13 -140 2 -101 7 -143 20 -167
11 -21 16 -54 15 -99 0 -38 0 -79 1 -93 1 -14 -2 -40 -6 -58 -4 -21 -2 -32 5
-32 6 0 11 9 11 19 0 25 20 38 31 20 5 -8 9 -26 9 -41 0 -26 3 -28 44 -28 l44
0 -8 33 c-5 17 -14 70 -20 116 -6 47 -17 96 -24 110 -8 14 -16 60 -18 101 -3
42 -12 89 -21 107 -13 24 -17 57 -16 130 0 109 -10 89 117 243 27 33 42 62 42
80 0 15 6 33 14 39 8 7 18 25 21 41 3 16 13 34 21 41 18 15 18 96 -1 129 -8
14 -14 46 -15 71 0 31 -7 55 -20 72 -28 36 -28 166 0 228 12 28 20 66 20 105
0 40 5 66 14 73 8 7 17 28 21 48 4 20 15 48 26 61 10 14 19 30 19 37 0 6 9 20
20 30 11 10 20 23 20 30 0 7 9 20 20 30 11 10 20 28 20 40 0 12 9 30 20 40 11
10 20 26 20 35 0 10 9 29 20 43 11 14 20 29 20 35 0 5 9 19 20 32 11 13 20 36
20 53 0 16 8 44 19 61 10 17 24 47 30 67 7 20 20 44 30 53 18 16 23 14 91 -46
84 -74 155 -117 190 -118 14 0 35 -6 46 -14 12 -9 55 -15 121 -17 79 -3 105
-8 120 -22 16 -13 30 -16 66 -11 45 6 47 6 47 -18 0 -22 -59 -78 -122 -114
-11 -7 -37 -28 -58 -48 -21 -20 -48 -36 -61 -36 -12 0 -30 -7 -40 -16 -9 -8
-45 -19 -79 -24 -34 -5 -68 -14 -76 -21 -9 -7 -62 -16 -122 -20 -59 -4 -118
-12 -132 -17 -23 -9 -21 -11 30 -26 67 -20 184 -13 247 15 23 11 51 19 63 19
12 0 42 9 68 19 26 11 60 22 76 26 28 6 123 79 215 164 38 36 43 45 37 72 -5
27 0 38 39 84 48 56 52 69 30 99 -20 26 -19 78 1 124 25 57 22 244 -5 346 -12
44 -21 88 -21 97 0 10 -18 39 -40 64 -22 25 -40 51 -40 56 0 18 -109 147 -129
154 -11 3 -35 20 -53 37 -36 33 -67 48 -103 48 -14 0 -30 11 -41 28 -31 47
-105 195 -126 252 -23 61 -37 203 -38 359 0 118 5 145 33 183 15 21 18 36 13
67 -7 47 9 100 26 83 5 -5 13 -31 15 -56 3 -25 12 -51 19 -57 8 -6 14 -30 14
-53 1 -62 37 -184 64 -216 7 -8 16 -29 19 -46 8 -44 46 -96 119 -165 l62 -59
108 0 c61 0 108 -4 108 -9 0 -6 20 -29 45 -52 53 -50 59 -89 23 -148 -22 -34
-23 -45 -20 -190 3 -147 4 -156 30 -198 57 -94 92 -156 92 -165 0 -6 6 -24 14
-41 8 -18 26 -66 40 -107 26 -79 26 -113 -3 -240 -6 -25 -10 -62 -11 -83 0
-63 -109 -227 -151 -227 -10 0 -26 -9 -36 -19 -10 -10 -27 -20 -38 -22 -13 -3
-29 -23 -45 -56 -27 -56 -84 -117 -164 -173 -27 -19 -66 -47 -88 -62 -21 -16
-41 -28 -43 -28 -6 0 -77 -49 -95 -65 -8 -8 -42 -37 -76 -64 -119 -96 -141
-140 -123 -255 6 -39 17 -79 24 -91 7 -11 16 -36 20 -55 4 -19 15 -51 25 -70
9 -19 25 -50 34 -69 35 -70 56 -152 56 -213 0 -74 -22 -176 -49 -233 -10 -22
-31 -67 -46 -100 -22 -48 -85 -138 -115 -165 -3 -3 -19 -27 -35 -55 -29 -48
-30 -55 -29 -165 1 -153 6 -170 45 -170 26 0 30 3 23 18 -5 9 -10 59 -12 111
-4 105 10 144 79 231 67 83 119 163 119 183 0 10 17 53 37 95 38 77 38 77 41
225 3 136 2 149 -17 173 -12 15 -21 32 -21 38 0 6 -8 27 -18 46 -11 19 -22 51
-25 70 -4 19 -13 49 -21 65 -8 17 -19 41 -26 55 -6 14 -18 38 -26 53 -12 21
-14 42 -9 75 6 40 15 55 65 102 93 87 156 140 168 140 5 0 32 18 60 39 27 22
74 53 104 70 69 39 164 140 178 189 15 54 39 78 98 97 42 13 61 28 97 72 25
30 45 61 45 69 0 8 9 27 20 42 39 52 63 329 36 411 -9 27 -16 60 -16 73 0 13
-16 53 -35 88 -19 36 -41 79 -50 97 -8 17 -19 34 -24 37 -5 4 -19 36 -32 73
-17 53 -22 88 -21 170 1 61 7 113 14 126 7 12 15 44 18 72 4 37 10 51 22 53
28 5 37 -34 25 -106 -11 -64 -2 -93 23 -77 9 5 11 29 8 77 -6 76 -7 74 71 76
44 2 88 43 102 97 15 54 4 178 -20 229 -11 23 -22 69 -26 104 -4 34 -11 62
-16 62 -5 0 -9 15 -8 33 l1 32 9 -32 c5 -18 15 -33 22 -33 12 0 61 -86 72
-128 4 -12 28 -59 53 -103 26 -45 53 -93 61 -107 8 -15 18 -29 23 -30 4 -2 27
-21 51 -43 93 -85 179 -101 272 -48 31 17 60 39 65 49 11 21 14 104 5 148 -9
42 2 55 72 77 32 11 63 24 68 30 6 7 20 17 33 24 33 17 64 94 57 140 -14 88
-29 142 -47 157 -10 10 -18 23 -18 30 0 7 -9 31 -21 53 -11 22 -18 45 -15 50
7 11 43 3 71 -16 11 -7 32 -13 47 -13 15 0 29 -4 33 -10 3 -5 34 -22 68 -39
181 -86 212 -104 274 -161 17 -17 34 -30 37 -30 11 0 138 -138 177 -192 21
-29 45 -67 53 -84 8 -17 19 -35 25 -38 6 -4 11 -16 11 -26 0 -24 58 -66 72
-52 9 9 0 29 -60 138 -7 13 -18 24 -23 24 -6 0 -17 15 -25 33 -34 72 -51 97
-100 149 -90 94 -183 172 -237 200 -28 16 -61 35 -72 43 -10 8 -27 15 -36 15
-10 0 -24 6 -31 13 -14 14 -121 67 -135 67 -5 0 -24 8 -43 18 -19 11 -54 22
-77 26 -70 10 -145 50 -173 91 -14 20 -34 47 -45 61 -46 55 -57 71 -83 110
-15 23 -35 53 -46 68 -16 23 -18 44 -17 177 2 141 0 154 -24 216 -18 44 -23
69 -17 75 6 6 40 9 77 6 73 -4 90 -17 121 -85 l14 -33 108 -2 c59 0 116 0 126
1 32 2 74 -48 122 -144 46 -92 138 -204 185 -225 13 -6 35 -17 49 -25 38 -22
78 -18 125 13 44 27 80 74 68 86 -4 3 -12 22 -19 41 -10 31 -9 35 7 40 10 3
29 0 41 -7 48 -26 220 -38 257 -18 22 11 23 16 17 77 -6 60 -11 70 -57 124
-59 67 -59 91 -3 109 20 7 51 26 70 42 28 24 34 37 34 68 0 36 -5 43 -71 94
-47 37 -80 56 -99 56 -15 0 -33 7 -40 15 -7 8 -24 14 -39 13 -55 -4 -127 3
-141 12 -13 9 -13 12 1 23 28 21 64 118 64 172 0 39 -6 58 -25 82 -22 28 -31
32 -76 32 -28 1 -54 -2 -58 -6 -4 -5 -24 -13 -44 -18 -21 -6 -41 -20 -48 -33
-6 -12 -18 -30 -26 -39 -8 -10 -21 -33 -28 -51 -7 -18 -21 -37 -31 -43 -10 -5
-26 -23 -34 -39 -21 -41 -57 -48 -110 -21 -23 11 -49 21 -58 21 -9 0 -18 4
-22 9 -3 5 -39 26 -80 47 -41 21 -75 41 -75 45 0 11 -69 49 -90 49 -10 0 -31
-15 -45 -34 -26 -34 -50 -38 -81 -15 -6 5 -35 12 -65 17 l-54 7 3 60 c2 33 10
79 18 103 8 23 14 53 14 66 0 13 7 29 15 36 8 7 15 18 15 25 0 6 9 23 20 36
12 13 34 41 50 62 34 45 137 127 159 127 17 0 111 92 111 108 0 5 7 15 15 22
24 20 29 75 11 111 -14 29 -14 35 -1 55 27 42 107 68 132 43 6 -6 35 -14 64
-19 116 -19 235 -56 289 -91 8 -5 26 -15 40 -21 14 -7 36 -20 49 -30 13 -10
33 -18 44 -18 23 0 28 -4 117 -91 36 -35 92 -86 125 -114 97 -79 190 -176 220
-228 15 -26 33 -50 40 -55 7 -4 19 -21 28 -38 9 -17 23 -37 32 -44 20 -17 85
-151 85 -176 0 -10 7 -25 15 -34 8 -9 19 -38 24 -63 4 -26 14 -54 22 -63 9
-10 14 -56 17 -137 2 -67 8 -129 12 -137 5 -8 4 -124 -2 -258 -7 -188 -7 -246
3 -258 8 -10 15 -11 25 -3 12 10 15 34 28 264 6 99 13 125 30 125 16 0 66 -69
66 -92 0 -8 10 -28 23 -44 21 -28 22 -36 22 -244 0 -138 4 -222 11 -234 11
-18 11 -18 19 0 12 31 22 247 12 268 -5 11 -5 22 1 28 13 13 60 -11 68 -36 3
-12 15 -28 26 -37 18 -14 20 -27 20 -115 -1 -72 -7 -114 -22 -156 -11 -32 -20
-63 -20 -70 0 -7 -9 -30 -19 -50 -22 -39 -19 -48 15 -48 29 0 50 32 59 90 4
25 16 55 28 68 l21 22 28 -27 c26 -25 28 -32 28 -102 0 -42 -7 -94 -14 -116
-18 -51 -4 -71 24 -35 23 30 34 19 44 -41 4 -25 12 -39 21 -39 20 0 20 89 0
116 -9 13 -14 44 -15 93 0 54 -6 86 -20 115 -20 42 -74 106 -89 106 -5 0 -10
42 -13 93 -5 95 -21 136 -80 201 -10 11 -18 24 -18 28 0 5 -12 14 -27 21 -36
15 -43 25 -43 62 0 17 -9 44 -20 60 -11 17 -20 41 -20 54 0 14 -26 54 -65 101
-36 43 -65 87 -65 99 0 25 10 27 155 37 149 10 199 10 273 1 l63 -8 -3 28 c-3
25 -8 29 -48 36 -99 16 -197 20 -221 7 -13 -7 -65 -15 -115 -18 l-92 -5 -20
39 c-11 22 -23 62 -26 89 -12 80 -45 197 -61 215 -8 9 -15 23 -15 31 0 8 -9
29 -20 47 -11 18 -20 41 -20 51 0 33 -46 105 -104 165 -32 32 -61 67 -65 78
-12 33 -134 163 -186 198 -27 19 -66 50 -86 70 -94 93 -156 140 -244 182 -33
16 -78 40 -100 53 -58 35 -80 44 -138 54 -88 16 -257 62 -317 87 -72 29 -139
35 -300 23 -85 -5 -182 -17 -215 -24 -33 -8 -94 -17 -135 -20 -41 -4 -84 -12
-95 -19 -11 -7 -41 -15 -68 -18 -37 -4 -53 -1 -72 14 -14 11 -25 25 -25 33 0
7 -27 42 -61 76 -33 35 -65 72 -70 82 -6 9 -28 29 -51 43 -23 15 -62 48 -87
74 -45 46 -143 120 -159 120 -5 0 -17 9 -27 20 -10 11 -23 20 -29 20 -6 0 -28
9 -49 20 -20 11 -41 20 -46 20 -5 0 -22 5 -38 11 l-28 11 36 31 c59 52 63 67
66 229 1 117 -1 149 -12 158 -16 13 -185 21 -223 11z m130 -103 c19 -37 19
-39 1 -75 -22 -47 -55 -54 -89 -22 -32 30 -32 84 -2 116 32 34 67 27 90 -19z
m-192 -336 c47 -5 103 -17 124 -26 21 -9 46 -16 55 -16 9 0 32 -9 51 -20 19
-11 76 -40 127 -66 58 -29 112 -66 150 -101 32 -31 77 -71 100 -89 99 -76 186
-181 240 -288 14 -28 34 -59 44 -69 11 -10 19 -27 19 -38 0 -11 9 -33 20 -49
11 -17 28 -42 38 -57 10 -16 22 -43 25 -62 4 -19 13 -42 21 -50 7 -9 23 -61
35 -116 12 -55 29 -120 38 -145 20 -57 29 -205 13 -215 -6 -4 -77 -11 -157
-16 -184 -12 -308 -37 -400 -83 -40 -20 -77 -36 -83 -36 -20 0 -95 -42 -140
-80 -25 -20 -67 -50 -94 -66 -27 -16 -79 -57 -116 -91 -37 -35 -69 -63 -72
-63 -8 0 -23 65 -48 195 -31 167 -87 383 -104 405 -7 8 -36 63 -66 123 -30 60
-68 120 -87 137 -18 17 -33 37 -33 44 0 7 -7 20 -16 27 -9 7 -20 23 -25 35 -4
13 -32 41 -61 64 -29 23 -60 47 -69 55 -28 22 -55 27 -69 10 -10 -12 -6 -20
24 -47 71 -64 166 -163 166 -174 0 -6 11 -20 25 -32 14 -12 25 -27 25 -32 0
-6 17 -34 38 -63 20 -29 44 -68 53 -87 36 -77 69 -158 69 -171 1 -8 9 -32 20
-54 11 -22 19 -59 20 -83 0 -24 7 -56 14 -71 8 -15 19 -63 24 -107 5 -43 16
-94 23 -112 12 -28 12 -34 -1 -42 -24 -15 -90 -12 -90 4 0 8 -12 19 -27 25
-16 7 -39 18 -53 26 -31 19 -85 16 -85 -5 0 -10 12 -16 36 -18 21 -2 45 -12
54 -23 10 -10 30 -19 44 -19 15 0 31 -8 38 -20 7 -10 29 -22 48 -26 50 -9 64
-45 33 -84 -13 -15 -36 -49 -52 -76 -17 -27 -52 -85 -79 -129 -27 -44 -52 -93
-56 -110 l-7 -30 -134 -7 c-148 -8 -203 -4 -220 17 -6 8 -26 17 -43 20 -18 4
-39 13 -47 20 -8 7 -31 20 -50 29 -19 8 -42 19 -50 24 -48 27 -100 52 -110 52
-19 0 -122 50 -169 82 -25 17 -54 34 -65 39 -12 5 -29 14 -38 21 -13 10 -20
10 -29 1 -9 -9 -3 -21 27 -50 21 -21 44 -48 51 -60 11 -21 10 -23 -11 -23 -49
0 -127 -33 -148 -62 l-20 -29 -51 48 c-29 26 -57 58 -64 70 -10 20 -8 22 16
28 26 6 103 92 118 132 3 10 12 25 19 33 30 35 64 113 64 145 0 19 8 56 17 82
25 69 24 463 0 508 -9 17 -17 44 -17 61 0 54 -93 217 -135 236 -14 6 -25 14
-25 18 0 8 -51 30 -115 50 -22 7 -51 21 -64 31 -13 11 -38 19 -55 19 -17 1
-49 7 -71 15 -45 16 -176 20 -190 6 -6 -6 -41 -15 -79 -21 -69 -11 -94 -21
-153 -64 -49 -36 -132 -137 -139 -171 -3 -16 -11 -35 -16 -42 -36 -44 -55
-199 -64 -509 l-6 -201 27 -68 c24 -59 27 -78 23 -144 -5 -74 -20 -111 -68
-168 -17 -20 -98 -16 -134 6 -64 40 -73 63 -80 211 -3 74 -3 180 2 235 8 89
13 107 46 162 20 34 39 77 43 95 3 18 12 46 20 61 10 20 14 65 15 150 0 130 1
124 -69 262 -32 62 -116 130 -175 142 -18 3 -49 15 -69 25 -26 13 -59 18 -127
19 l-92 2 -60 -42 c-34 -22 -64 -41 -69 -41 -4 0 -20 -10 -35 -22 -96 -80
-126 -129 -126 -211 0 -34 -7 -91 -14 -127 -13 -59 -12 -70 5 -122 19 -57 94
-178 110 -178 5 0 15 -12 23 -27 13 -26 12 -29 -24 -73 -53 -62 -100 -152
-100 -189 0 -17 -9 -45 -19 -63 -11 -17 -17 -36 -14 -41 3 -5 5 -40 4 -76 -1
-54 3 -76 24 -114 32 -61 32 -77 0 -77 -64 0 -128 48 -141 105 -12 53 -48 116
-69 121 -11 2 -74 9 -140 14 -66 5 -144 14 -173 20 -56 12 -203 78 -262 118
-40 27 -89 81 -90 99 0 7 -6 16 -13 20 -21 13 -55 83 -71 145 -8 31 -20 66
-26 78 -13 24 -19 232 -7 273 5 20 14 27 32 27 13 0 52 6 87 14 35 8 97 17
138 21 41 4 83 12 94 17 17 9 17 11 2 26 -13 14 -40 17 -129 19 -62 1 -127 2
-144 2 -43 1 -44 27 -3 101 16 30 35 68 41 83 13 33 62 61 90 52 11 -4 31 -4
45 -1 31 8 31 36 1 72 -33 38 -18 66 61 105 34 18 67 38 73 46 6 7 21 13 33
13 12 0 31 7 44 15 54 39 404 75 717 75 127 0 218 -16 180 -31 -11 -4 -42 -8
-70 -9 -51 0 -121 -26 -142 -51 -28 -35 -17 -79 20 -79 12 0 37 -9 55 -20 18
-11 48 -20 68 -20 19 0 54 -4 77 -9 23 -5 89 -15 147 -21 58 -6 138 -15 178
-21 56 -7 80 -6 100 4 43 20 34 41 -23 50 -27 4 -80 14 -116 22 -37 8 -91 15
-120 15 -71 1 -244 34 -264 50 -22 18 -2 30 50 30 36 0 79 11 215 57 25 8 57
17 73 20 44 8 237 -8 237 -19 0 -6 9 -29 19 -52 11 -23 22 -49 25 -59 6 -19
52 -41 73 -33 19 8 16 49 -5 77 -26 33 -52 119 -52 169 0 50 37 119 65 122 77
6 108 -4 156 -52 35 -35 49 -57 49 -77 0 -15 14 -48 30 -73 32 -48 45 -70 59
-97 6 -14 18 -17 52 -14 24 2 52 8 62 13 13 7 28 6 48 -2 18 -8 39 -9 56 -4
16 4 57 9 93 10 36 2 130 6 209 11 l144 8 31 40 c40 51 188 193 249 239 26 20
56 36 67 36 10 0 25 8 32 18 13 18 39 35 104 65 17 8 35 20 38 26 4 6 16 11
27 11 10 0 28 9 39 20 11 11 35 23 53 27 18 3 41 11 52 17 40 24 154 56 233
66 45 6 92 15 104 20 26 11 141 7 268 -8z m1668 -508 c18 -5 22 -13 20 -32 -2
-20 -11 -29 -36 -36 -36 -10 -68 -48 -57 -66 4 -6 18 -15 31 -20 13 -5 29 -21
35 -34 10 -21 7 -32 -27 -82 -22 -32 -48 -62 -59 -68 -115 -61 -211 -159 -242
-247 -10 -27 -21 -49 -25 -49 -4 0 -20 -28 -37 -62 -21 -45 -31 -85 -36 -140
-8 -88 -22 -100 -55 -45 -22 35 -27 113 -8 119 6 2 17 26 24 54 26 106 43 157
58 173 8 9 29 44 47 76 17 33 34 62 38 65 15 12 72 91 83 114 15 35 6 41 -29
20 -57 -36 -113 -110 -113 -149 0 -13 -6 -28 -13 -32 -21 -12 -67 -111 -67
-143 0 -20 -7 -33 -22 -41 -13 -7 -28 -19 -34 -27 -9 -12 -14 -5 -24 39 -7 30
-18 64 -26 76 -8 12 -14 37 -14 55 -1 18 -8 51 -16 73 -8 22 -19 52 -23 66
-10 30 -101 188 -113 195 -4 3 -8 16 -8 29 0 25 25 45 57 45 10 0 36 9 56 19
29 15 78 22 205 31 92 7 183 16 202 20 43 10 196 12 228 4z m-5838 -328 c0 -7
-4 -16 -9 -21 -18 -18 -61 -106 -61 -124 0 -10 -7 -24 -15 -31 -8 -7 -19 -27
-23 -44 -6 -23 -16 -33 -43 -41 -19 -6 -57 -22 -86 -37 -41 -20 -55 -23 -63
-14 -13 17 -40 94 -40 117 0 27 63 106 123 156 41 34 61 43 111 50 70 10 106
6 106 -11z m1461 -26 c25 0 113 -56 145 -92 63 -70 104 -188 104 -295 0 -71
-31 -176 -61 -209 -10 -11 -19 -26 -19 -32 0 -7 -4 -12 -10 -12 -5 0 -18 -9
-28 -20 -41 -44 -206 -80 -234 -52 -8 8 -11 67 -9 204 4 336 10 518 16 527 3
6 19 4 40 -5 19 -8 44 -14 56 -14z m1105 9 c38 -12 76 -27 84 -35 8 -7 27 -15
42 -19 15 -4 32 -13 39 -21 6 -8 20 -14 30 -14 37 0 129 -123 129 -173 0 -10
9 -35 19 -56 16 -31 22 -70 28 -201 9 -192 2 -328 -22 -390 -9 -25 -19 -56
-22 -69 -6 -26 -42 -85 -68 -112 -8 -9 -15 -21 -15 -26 0 -15 -58 -63 -75 -63
-8 0 -22 -8 -32 -19 -19 -20 -54 -29 -143 -37 -43 -4 -60 -1 -77 13 -20 17
-21 22 -10 66 8 36 8 69 0 126 -9 57 -9 96 0 150 8 55 8 90 -1 142 -7 38 -12
100 -12 138 0 41 -8 95 -20 133 -11 34 -20 77 -20 94 0 45 -44 155 -84 212
-19 27 -36 57 -38 68 -2 14 -13 20 -46 22 -37 3 -43 0 -52 -22 -5 -14 -16 -26
-24 -26 -20 0 -29 -16 -21 -40 5 -15 15 -20 40 -20 26 0 35 -5 41 -22 4 -13
16 -33 27 -44 22 -23 67 -161 67 -204 0 -14 4 -30 9 -36 30 -31 72 -581 51
-679 -24 -115 -40 -159 -63 -183 l-25 -25 -37 23 c-51 32 -89 95 -86 143 3 49
-20 84 -67 104 -53 21 -90 60 -120 123 -26 53 -27 62 -28 240 -3 252 8 403 29
424 9 9 19 36 22 61 4 24 18 59 32 77 14 18 29 43 34 56 5 12 17 26 26 29 10
4 32 21 50 39 26 26 43 34 90 39 32 4 69 14 83 21 39 21 157 17 236 -7z
m-1295 -64 c8 -70 -1 -618 -11 -629 -13 -13 -66 3 -102 32 -19 15 -61 57 -95
93 l-61 67 3 83 c6 111 20 228 33 260 12 30 132 127 171 139 47 15 56 8 62
-45z m-1465 -457 c56 -40 80 -79 89 -142 9 -60 -3 -70 -53 -45 -20 11 -41 19
-47 19 -16 0 -93 82 -104 111 -7 21 -5 33 10 58 24 40 49 40 105 -1z m-161
-107 c8 -25 99 -102 152 -130 23 -11 58 -21 77 -21 58 0 84 -19 117 -84 17
-34 51 -80 76 -102 49 -45 235 -144 269 -144 12 0 39 -7 60 -16 26 -11 83 -19
167 -23 l128 -6 29 -71 c35 -88 61 -117 131 -144 45 -18 66 -21 124 -16 63 6
75 4 119 -20 85 -45 192 -69 291 -65 78 3 109 18 175 84 57 56 93 76 105 57 4
-6 18 -15 31 -20 13 -5 24 -14 24 -19 0 -23 -66 -83 -123 -112 -34 -17 -69
-37 -77 -44 -8 -8 -35 -18 -59 -24 -24 -5 -48 -14 -54 -20 -6 -6 -23 -11 -38
-11 -15 0 -48 -9 -73 -19 -65 -28 -248 -43 -437 -35 -143 6 -159 5 -159 -9 0
-18 11 -22 115 -37 39 -5 99 -15 135 -21 53 -9 77 -8 130 4 36 9 99 18 141 21
44 3 94 14 120 26 24 11 53 20 65 20 11 0 29 7 40 15 10 8 25 15 33 15 8 0 48
16 89 36 78 38 192 137 192 167 0 10 23 23 65 37 42 14 73 32 89 51 30 35 37
36 101 4 28 -14 67 -28 87 -31 39 -7 64 -26 54 -42 -3 -5 -39 -11 -79 -14 -41
-3 -79 -8 -86 -12 -26 -16 4 -26 79 -26 70 0 79 2 85 20 8 25 30 25 62 0 18
-14 41 -20 79 -20 49 0 56 3 86 37 76 84 66 79 191 86 63 4 124 4 134 0 10 -3
53 -38 96 -76 64 -58 78 -75 75 -96 l-3 -26 -160 -7 c-88 -4 -190 -14 -227
-23 -37 -8 -86 -15 -109 -15 -25 0 -50 -7 -60 -16 -10 -9 -37 -18 -61 -21 -42
-6 -184 -79 -208 -108 -7 -8 -17 -15 -22 -15 -17 0 -147 -139 -154 -164 -3
-14 -12 -30 -19 -36 -8 -6 -17 -25 -20 -41 -4 -16 -11 -29 -16 -29 -4 0 -16
-12 -24 -27 -9 -16 -27 -46 -40 -68 -13 -22 -29 -50 -34 -63 -14 -29 -31 -35
-64 -23 -17 7 -27 18 -27 30 0 23 -16 36 -25 21 -3 -5 -37 -10 -75 -10 -37 0
-75 -3 -84 -6 -28 -11 -6 -24 38 -24 72 0 85 -48 23 -84 l-32 -18 23 -15 c14
-10 22 -26 22 -43 0 -15 7 -47 15 -70 8 -23 15 -56 15 -71 0 -38 48 -123 98
-174 53 -54 61 -81 28 -96 -26 -12 -101 -121 -118 -173 -6 -17 -18 -39 -27
-50 -13 -14 -16 -42 -16 -136 0 -118 0 -119 29 -149 17 -17 33 -31 37 -31 17
0 16 31 -2 53 -28 36 -27 172 1 224 11 21 20 45 20 55 0 9 9 23 20 31 10 7 24
24 29 38 8 22 10 22 17 5 4 -12 1 -31 -10 -51 -15 -28 -17 -53 -14 -161 5
-143 27 -233 60 -242 10 -2 18 -13 18 -25 0 -12 9 -30 19 -42 11 -11 31 -32
45 -47 14 -16 30 -28 36 -28 17 0 11 28 -7 39 -15 8 -16 12 -5 23 11 11 15 10
23 -4 6 -10 16 -18 24 -18 7 0 27 -11 43 -25 17 -14 37 -25 45 -25 9 0 28 -8
45 -17 35 -20 72 -12 52 12 -7 8 -21 15 -31 15 -11 0 -19 4 -19 8 0 5 -24 24
-52 42 -69 44 -98 71 -98 93 0 23 31 22 53 -3 9 -11 25 -20 35 -20 11 0 27 -9
37 -20 10 -11 24 -20 31 -20 7 0 25 -10 41 -23 15 -12 39 -28 53 -35 14 -7 48
-26 75 -42 28 -16 58 -29 67 -30 10 0 32 -6 50 -14 18 -8 52 -19 76 -26 51
-13 48 -25 -10 -34 -51 -8 -73 -20 -64 -35 10 -16 108 -14 133 4 11 8 55 25
96 38 l76 24 33 -34 c18 -19 44 -39 57 -44 21 -8 23 -14 17 -47 -18 -113 -54
-239 -79 -275 -47 -69 -112 -147 -123 -147 -6 0 -23 -9 -37 -20 -14 -11 -40
-23 -59 -26 -18 -4 -44 -14 -58 -22 -17 -11 -56 -18 -126 -20 -87 -4 -106 -1
-142 17 -23 12 -50 21 -61 21 -33 0 -51 11 -51 32 0 11 -6 32 -14 46 -7 15
-18 41 -23 57 -15 53 -38 38 -39 -27 0 -32 -7 -64 -14 -73 -34 -41 -168 -78
-208 -56 -10 5 -54 15 -98 20 -75 10 -159 35 -214 65 -14 7 -38 16 -55 20 -32
8 -105 42 -170 80 -22 13 -59 34 -83 46 -23 12 -72 42 -108 66 -37 25 -87 57
-113 71 -25 15 -66 43 -91 62 -55 44 -289 281 -348 353 -24 29 -57 69 -74 88
-17 19 -42 51 -56 70 -15 19 -50 61 -79 93 -30 32 -69 83 -88 113 -19 30 -39
54 -44 54 -5 0 -12 9 -16 19 -3 11 -32 53 -63 95 -31 41 -70 97 -87 125 -16
28 -33 51 -36 51 -4 0 -12 14 -19 30 -7 17 -18 34 -24 38 -7 4 -36 43 -65 87
-29 44 -56 82 -60 85 -16 13 -48 68 -55 94 -4 17 -23 56 -41 88 -19 32 -39 75
-45 95 -6 21 -17 47 -25 57 -8 11 -15 26 -15 34 0 8 -9 25 -20 39 -11 14 -20
35 -20 47 0 11 -9 35 -20 51 -11 17 -20 43 -20 58 0 15 -9 45 -20 67 -11 22
-20 46 -20 54 0 16 -50 118 -63 127 -4 3 -11 23 -14 45 -5 33 -28 91 -51 130
-19 32 -89 134 -117 169 -17 22 -50 74 -74 115 -41 71 -42 78 -44 164 l-2 89
30 8 c33 9 57 -6 80 -51 22 -42 163 -174 210 -196 16 -7 39 -19 50 -26 57 -36
163 -103 185 -117 14 -9 63 -36 110 -60 47 -24 94 -51 105 -60 11 -10 31 -23
45 -29 31 -14 116 -74 151 -106 14 -13 51 -40 82 -60 31 -20 73 -54 95 -74 21
-20 60 -55 86 -77 121 -102 346 -345 346 -374 0 -5 17 -27 38 -48 21 -21 41
-45 44 -54 3 -8 31 -52 62 -97 31 -45 59 -94 62 -107 3 -14 10 -28 15 -31 5
-3 25 -38 44 -79 18 -40 39 -76 44 -80 6 -3 11 -16 11 -28 0 -12 11 -40 25
-62 13 -22 25 -47 25 -56 0 -8 6 -21 12 -27 7 -7 18 -34 25 -60 6 -26 23 -78
38 -117 14 -38 31 -86 37 -105 5 -19 18 -44 29 -56 10 -11 19 -31 19 -43 0
-13 9 -34 20 -48 11 -14 20 -33 20 -42 0 -30 171 -281 191 -281 5 0 9 -5 9
-11 0 -12 66 -94 130 -161 19 -20 40 -43 46 -50 21 -25 86 -78 95 -78 11 0 12
27 1 32 -4 2 -39 41 -78 88 -39 47 -78 91 -87 99 -10 7 -17 18 -17 23 0 5 -26
42 -57 82 -32 39 -62 79 -68 87 -5 9 -23 36 -39 60 -16 24 -45 73 -64 109 -19
36 -38 67 -42 70 -4 3 -13 22 -19 42 -7 21 -17 40 -22 43 -5 4 -9 17 -9 29 0
13 -16 68 -36 122 -20 55 -40 114 -46 132 -10 36 -45 105 -71 143 -10 13 -17
33 -17 45 0 12 -7 27 -14 34 -8 6 -20 27 -26 46 -6 18 -22 53 -36 76 -13 24
-33 61 -44 83 -27 53 -43 80 -58 97 -7 9 -24 37 -38 64 -14 26 -35 60 -47 75
-12 14 -29 36 -37 49 -8 12 -34 43 -57 69 -24 25 -43 49 -43 53 0 4 -33 47
-74 96 -70 83 -122 134 -241 233 -27 23 -57 49 -66 58 -9 9 -41 34 -73 56 -31
22 -83 60 -114 85 -65 51 -86 65 -122 82 -14 7 -37 22 -51 33 -15 12 -67 41
-115 65 -49 24 -111 58 -139 75 -27 18 -79 51 -115 73 -36 23 -72 42 -80 42
-9 0 -22 8 -31 18 -8 9 -47 44 -87 77 -40 32 -72 62 -72 66 0 16 -65 79 -81
79 -10 0 -20 4 -24 9 -7 13 25 66 56 89 30 23 132 52 185 52 66 0 156 20 182
41 14 10 30 19 37 19 7 0 23 9 36 20 31 26 76 26 84 1z m5719 -16 c13 -10 45
-15 95 -15 42 0 99 -3 127 -6 49 -6 52 -8 74 -53 12 -25 24 -73 27 -106 2 -33
9 -70 15 -82 18 -36 3 -57 -35 -48 -17 4 -79 10 -137 14 -58 5 -116 14 -129
20 -15 8 -45 11 -84 7 -34 -3 -114 -9 -177 -14 -64 -5 -145 -19 -184 -31 -37
-11 -78 -21 -91 -21 -13 0 -42 -9 -66 -20 -24 -11 -53 -20 -64 -20 -11 0 -36
-8 -55 -18 -19 -11 -48 -22 -64 -26 -16 -4 -45 -20 -65 -37 -20 -16 -40 -29
-45 -29 -21 0 -167 -139 -202 -192 -13 -21 -35 -45 -48 -53 -14 -9 -28 -31
-32 -48 -3 -18 -15 -43 -25 -56 -11 -13 -19 -29 -19 -35 0 -7 -9 -29 -20 -51
-29 -58 -26 -135 7 -135 8 0 21 17 30 38 l17 37 8 -50 c6 -39 4 -64 -11 -110
-10 -33 -22 -72 -25 -86 -4 -18 -15 -29 -31 -33 -29 -7 -32 -31 -9 -57 14 -16
14 -25 -2 -101 -34 -162 -28 -348 16 -493 10 -33 21 -75 25 -92 3 -18 13 -33
20 -33 17 0 25 -23 14 -41 -7 -11 -15 -7 -39 21 -16 19 -32 43 -35 53 -4 9
-11 17 -16 17 -19 0 -21 -32 -5 -71 9 -21 23 -57 32 -78 9 -22 27 -50 40 -62
l23 -21 -40 -41 c-44 -46 -45 -49 -23 -68 14 -11 19 -10 33 6 9 11 35 33 58
48 40 27 43 28 75 14 18 -9 54 -17 81 -20 48 -5 114 -41 150 -82 41 -47 127
-184 127 -202 0 -10 5 -24 10 -29 11 -11 38 -154 47 -246 6 -61 -13 -129 -51
-180 -16 -23 -28 -28 -60 -28 -51 0 -53 -2 -99 -72 l-38 -58 -100 3 c-81 2
-102 5 -110 18 -5 9 -21 20 -36 24 -35 8 -102 61 -203 158 -36 35 -55 46 -95
52 -28 4 -58 11 -68 17 -10 5 -109 16 -220 24 -111 8 -208 16 -214 19 -17 6
-16 45 2 69 12 15 15 52 15 161 0 121 -3 146 -20 180 -11 22 -20 47 -20 56 0
9 -7 22 -15 29 -8 7 -15 23 -15 36 0 14 -15 37 -40 60 -22 21 -40 40 -40 44 0
4 18 20 40 35 22 15 49 43 61 61 11 18 33 47 49 64 l30 32 19 -46 c11 -25 23
-79 27 -119 6 -66 4 -79 -20 -129 -20 -43 -26 -70 -26 -124 0 -38 3 -79 6 -91
3 -12 36 -42 73 -68 62 -41 72 -45 130 -45 68 0 115 16 146 49 11 12 28 29 37
39 28 29 66 108 73 149 3 21 13 65 21 98 22 84 14 251 -14 325 -24 66 -103
144 -160 160 -80 22 -184 6 -219 -34 -12 -15 -29 -26 -37 -26 -8 0 -16 -6 -19
-12 -2 -7 -4 25 -3 72 1 234 -40 377 -126 436 -98 67 -91 49 -92 273 -1 110 2
202 5 206 4 3 137 7 295 8 l289 2 3 -55 c3 -51 15 -80 32 -80 11 0 40 80 38
100 -4 26 23 101 68 196 24 51 44 99 44 108 0 9 4 16 10 16 5 0 17 14 26 31 8
17 40 56 70 86 30 30 54 61 54 67 0 14 159 171 205 201 58 40 156 97 233 136
127 66 200 87 330 95 64 4 128 10 142 15 46 14 193 10 214 -6z m-4154 -119 c6
-8 21 -16 33 -18 l22 -3 -3 -290 c-1 -159 -2 -296 -2 -302 0 -20 -34 -15 -96
12 -31 14 -61 25 -67 25 -14 0 -97 91 -97 107 0 6 -11 24 -24 40 -19 22 -22
33 -14 53 5 13 6 42 2 63 -7 45 14 100 100 266 11 20 80 57 112 59 12 1 27 -4
34 -12z m351 -196 c4 -96 10 -183 14 -192 5 -13 -1 -19 -30 -27 -20 -5 -52
-22 -71 -36 -29 -22 -35 -32 -32 -58 3 -31 5 -32 48 -32 66 0 79 -12 44 -42
-65 -54 -184 -84 -205 -52 -5 8 -8 143 -7 300 2 228 6 289 17 303 12 14 30 16
115 14 l101 -3 6 -175z m3842 -62 c50 -67 69 -212 52 -389 l-8 -76 37 -40 c20
-22 36 -45 36 -50 0 -6 23 -33 50 -62 28 -29 57 -66 66 -83 9 -17 30 -45 47
-62 54 -54 127 -143 127 -154 0 -6 6 -17 13 -24 26 -27 66 -125 71 -175 11
-108 -32 -164 -135 -177 -56 -7 -56 -7 -77 27 -11 19 -23 45 -27 58 -4 13 -13
31 -20 39 -7 8 -25 40 -41 70 -15 30 -42 74 -61 97 -18 23 -33 45 -33 49 0 11
-53 88 -64 93 -5 2 -16 11 -26 21 -23 23 -57 31 -70 15 -8 -9 -7 -14 3 -18 13
-5 118 -155 145 -207 7 -14 24 -43 37 -65 49 -80 110 -201 122 -240 6 -22 18
-58 27 -80 8 -22 15 -52 16 -67 0 -53 -89 -98 -163 -82 -47 9 -111 54 -138 94
-12 19 -31 44 -40 55 -26 30 -99 173 -99 194 0 10 -7 24 -14 31 -8 6 -20 28
-27 47 -11 35 -52 102 -68 113 -5 3 -16 19 -24 37 -22 42 -84 65 -103 38 -14
-19 -9 -64 12 -107 8 -15 14 -42 14 -60 0 -19 7 -43 15 -55 8 -11 17 -40 21
-64 3 -24 15 -56 25 -71 15 -21 19 -45 19 -110 0 -108 -5 -124 -43 -137 -68
-24 -161 19 -232 106 -25 30 -45 61 -45 68 0 7 -7 18 -15 25 -8 7 -15 24 -15
39 0 14 -9 45 -20 68 -10 24 -22 71 -25 105 -4 35 -12 81 -20 103 -7 22 -16
57 -19 78 -5 42 -23 70 -37 61 -15 -9 -10 -118 6 -141 9 -13 19 -60 24 -110 4
-49 13 -97 19 -108 6 -11 16 -42 21 -70 12 -61 0 -90 -32 -80 -12 4 -39 10
-61 12 -43 6 -96 38 -132 80 -14 16 -30 35 -38 43 -7 8 -17 26 -21 40 -4 14
-13 32 -20 40 -7 8 -15 34 -19 58 -4 24 -13 53 -20 65 -8 12 -17 51 -21 86 -3
36 -13 77 -21 93 -17 33 -38 224 -32 290 3 25 1 72 -3 105 -11 76 10 142 64
203 122 138 138 151 215 187 244 112 439 156 714 161 l87 2 24 -32z m-2545
-574 c22 -4 23 -8 16 -47 -4 -23 -6 -60 -5 -83 3 -63 -12 -92 -52 -99 -42 -8
-57 -36 -57 -104 0 -45 -2 -49 -27 -56 -65 -15 -154 -90 -195 -162 -17 -29
-34 -53 -38 -53 -5 0 -20 -38 -35 -85 -24 -74 -26 -94 -20 -159 3 -40 13 -86
21 -101 8 -15 14 -33 14 -39 0 -7 11 -27 25 -46 14 -19 25 -41 25 -49 0 -8 12
-27 26 -43 l27 -27 -24 -11 c-25 -12 -61 -63 -96 -140 -29 -60 -48 -196 -34
-233 6 -16 11 -48 11 -72 0 -53 45 -199 74 -238 17 -23 18 -30 7 -36 -19 -12
-151 -5 -164 8 -6 6 -19 11 -30 11 -27 0 -161 66 -212 105 -84 65 -189 197
-201 255 -3 14 -18 51 -35 83 -28 56 -36 107 -23 142 6 14 11 11 35 -15 16
-17 29 -37 29 -44 0 -17 25 -38 33 -29 9 9 -4 55 -20 71 -7 7 -13 24 -13 37 0
13 -7 50 -16 82 -19 68 -18 56 -11 162 4 45 10 88 15 95 5 6 12 23 16 38 19
83 187 255 275 283 26 8 27 21 3 34 -19 10 -96 -18 -145 -54 -76 -55 -102 -78
-129 -114 -15 -21 -35 -42 -43 -45 -9 -3 -15 -19 -15 -41 0 -19 -4 -35 -10
-35 -16 0 -12 37 11 114 27 88 54 142 91 180 41 41 96 76 118 76 11 0 27 8 37
19 10 10 28 24 41 30 12 7 20 16 17 22 -9 14 -41 11 -55 -6 -7 -8 -24 -15 -39
-15 -14 0 -37 -9 -51 -20 -14 -11 -33 -20 -42 -20 -9 0 -21 -6 -25 -13 -4 -7
-25 -23 -46 -37 -20 -14 -40 -33 -43 -42 -3 -10 -10 -18 -15 -18 -15 0 -10 52
11 110 11 30 20 63 20 73 0 11 20 38 44 61 37 34 43 46 39 69 -4 20 -1 27 11
27 9 0 16 6 16 13 0 23 159 141 204 153 14 3 30 12 37 20 6 8 19 14 29 14 10
0 49 10 86 22 93 29 410 43 502 22z m238 -267 c4 -4 27 -7 51 -7 37 0 49 -5
74 -32 29 -32 29 -33 8 -36 -13 -2 -48 1 -78 7 -85 16 -201 15 -240 -2 -19 -8
-42 -12 -52 -10 -17 5 -17 7 -3 34 8 16 16 29 17 29 1 0 20 7 42 14 40 14 168
16 181 3z m124 -170 c102 -36 127 -53 140 -91 6 -19 20 -38 30 -41 10 -3 24
-21 30 -40 6 -18 15 -35 21 -37 5 -2 11 -52 14 -113 4 -60 8 -118 11 -127 6
-21 -16 -141 -27 -148 -13 -9 -57 -76 -64 -98 -3 -12 -15 -24 -26 -27 -10 -4
-19 -10 -19 -15 0 -11 -121 -70 -142 -70 -7 0 -26 -7 -43 -16 -24 -13 -48 -15
-125 -9 -143 10 -188 22 -244 66 -27 22 -53 39 -59 39 -10 0 -23 11 -90 76
-44 42 -81 118 -102 212 -15 62 -14 66 10 136 54 153 75 180 194 253 34 22 46
27 116 58 20 9 76 14 170 14 122 1 148 -2 205 -22z m563 -514 c67 -37 120
-104 99 -125 -5 -5 -70 -8 -148 -6 l-139 3 -3 28 c-5 39 22 75 71 97 53 24 81
24 120 3z m120 -217 c23 -16 24 -20 15 -59 -14 -63 -16 -64 -120 -54 -155 14
-156 14 -184 57 -18 27 -24 45 -19 61 7 22 9 22 145 16 104 -4 144 -9 163 -21z
m-1247 -54 c11 -7 -7 -56 -35 -102 -49 -78 -55 -104 -56 -226 0 -99 3 -125 16
-140 9 -11 20 -34 24 -52 9 -42 123 -162 153 -162 12 0 29 -8 39 -18 10 -11
32 -26 49 -34 26 -13 34 -13 49 -2 16 12 22 12 41 -1 33 -21 118 -18 194 8 93
32 108 44 148 122 l35 70 1 147 c1 137 0 148 -21 177 -13 16 -23 35 -23 40 0
6 -11 18 -25 27 -25 16 -34 57 -16 68 12 8 101 -115 101 -140 0 -12 8 -32 19
-45 21 -27 34 -130 32 -251 -2 -110 -39 -180 -132 -249 -58 -43 -115 -58 -254
-65 -121 -6 -133 -5 -172 15 -23 11 -51 21 -62 21 -11 0 -37 17 -58 38 -22 20
-51 47 -65 59 -35 28 -111 160 -104 179 3 8 -3 33 -15 55 -43 86 -41 258 6
340 13 24 33 61 45 81 22 41 59 58 86 40z m169 -89 c28 -10 55 -22 61 -26 13
-8 7 -255 -7 -272 -4 -6 -29 -16 -56 -23 -70 -19 -115 -41 -108 -52 3 -5 28
-12 56 -16 59 -8 68 -17 33 -33 -31 -14 -27 -35 9 -39 14 -2 31 -9 37 -17 9
-11 5 -17 -19 -29 -16 -9 -39 -16 -50 -16 -33 0 -79 48 -121 128 -37 70 -40
84 -40 154 0 94 28 177 79 231 39 42 42 42 126 10z m1048 -39 c27 -10 38 -40
31 -83 l-6 -39 -60 -7 c-32 -4 -87 -2 -121 4 -34 5 -83 13 -109 16 -58 7 -65
17 -39 51 12 15 21 34 21 44 0 9 3 20 8 25 8 8 249 -1 275 -11z m-699 -28 c8
-18 19 -37 25 -40 6 -4 21 -26 33 -49 18 -35 21 -59 21 -147 -1 -94 -4 -111
-29 -164 -43 -89 -86 -114 -194 -118 l-85 -3 -3 85 c-2 46 2 118 8 160 21 156
23 160 69 160 32 0 81 47 81 76 0 74 49 100 74 40z m609 -161 c26 -2 52 -7 57
-10 18 -11 -19 -58 -60 -76 -45 -20 -110 -26 -110 -9 0 5 -15 13 -33 18 -35
10 -87 52 -87 70 0 6 6 12 13 15 12 5 124 1 220 -8z m-129 -461 c16 -8 37 -14
46 -14 26 0 45 -26 27 -37 -8 -4 -32 -23 -53 -40 -53 -44 -107 -80 -135 -88
-13 -4 -31 -13 -39 -19 -27 -22 -287 -118 -383 -142 -32 -8 -67 -19 -77 -24
-10 -6 -62 -12 -115 -15 -52 -2 -104 -9 -115 -15 -10 -5 -33 -10 -50 -10 -41
0 -70 -16 -70 -39 0 -29 25 -43 72 -40 24 1 76 2 117 1 66 -2 73 -4 56 -16
-14 -10 -25 -11 -46 -2 -21 7 -38 7 -65 -3 -26 -9 -39 -10 -47 -2 -17 17 -37
13 -75 -16 -23 -17 -37 -23 -40 -15 -4 14 -42 16 -42 2 0 -5 7 -10 15 -10 17
0 20 -36 6 -59 -7 -11 -10 -9 -16 8 -3 12 -16 31 -28 42 -19 18 -20 22 -7 32
8 7 21 25 28 41 7 17 26 46 41 65 38 48 58 99 72 179 12 74 53 147 77 137 44
-17 168 -27 257 -21 114 8 158 25 240 92 29 23 60 44 70 46 45 8 252 -4 279
-18z m-3164 -10 c0 -24 32 -59 55 -59 13 0 21 -8 23 -23 3 -19 -1 -23 -20 -22
-50 4 -70 0 -75 -18 -2 -10 -21 -24 -41 -32 -46 -16 -52 -25 -52 -77 0 -47 13
-62 36 -39 8 9 21 16 29 16 7 0 21 3 31 7 14 5 16 2 12 -18 -3 -13 -9 -32 -13
-41 -4 -11 -3 -18 4 -18 7 0 28 -7 47 -15 l36 -15 -23 -19 -24 -20 59 -53 c32
-29 68 -60 79 -68 11 -8 36 -30 56 -48 46 -42 36 -67 -30 -67 -68 0 -86 -17
-81 -77 3 -24 40 -23 67 2 21 19 21 19 65 -19 l45 -39 -27 -11 c-16 -6 -28
-17 -28 -24 0 -7 -6 -22 -14 -32 -13 -18 -15 -18 -40 -1 -40 25 -80 18 -84
-16 -4 -37 35 -63 83 -54 33 6 35 5 35 -19 0 -18 5 -25 19 -25 25 0 38 -20 20
-31 -10 -6 -22 0 -38 17 -26 28 -38 28 -153 5 -53 -11 -62 -10 -105 10 -48 21
-48 21 -23 32 50 23 75 71 43 81 -27 8 -185 4 -210 -5 -27 -10 -37 -57 -26
-114 7 -33 13 -41 35 -43 15 -2 32 -10 38 -18 18 -20 60 -17 85 6 20 19 26 20
69 8 37 -10 51 -10 66 0 29 18 88 15 153 -8 33 -12 82 -20 118 -20 35 0 75 -7
94 -16 46 -22 70 -15 70 18 0 15 7 35 16 44 16 15 15 19 -3 53 -11 20 -34 45
-51 56 -41 26 -46 63 -14 100 l23 28 42 -27 42 -26 62 29 c69 33 78 30 78 -26
0 -34 8 -41 27 -22 16 16 70 1 88 -24 24 -34 18 -56 -20 -78 -46 -28 -46 -54
1 -74 31 -13 34 -17 24 -30 -7 -8 -23 -15 -36 -15 -13 0 -24 -4 -24 -9 0 -10
55 -12 105 -5 30 4 55 38 55 75 0 14 6 15 46 7 25 -6 67 -7 92 -2 l47 7 -51
15 -52 14 -12 60 c-6 33 -8 74 -5 91 8 35 51 87 72 87 8 0 13 12 13 30 0 18 5
30 13 30 10 0 13 -20 14 -72 0 -40 7 -89 15 -108 l15 -35 37 40 c32 35 39 38
56 27 34 -21 75 -15 88 13 9 18 19 25 41 25 16 0 32 -4 36 -10 10 -16 -33 -50
-65 -50 -22 0 -30 -5 -30 -18 0 -11 -9 -27 -20 -37 -11 -10 -20 -21 -20 -25 0
-14 52 -30 98 -30 44 -1 46 -2 27 -16 -14 -11 -32 -14 -57 -10 -41 7 -53 -3
-43 -35 5 -15 12 -18 23 -13 10 4 34 8 55 9 21 1 43 7 49 13 7 7 22 12 35 12
18 0 25 -7 30 -30 8 -40 23 -48 41 -22 21 32 39 27 53 -15 6 -21 16 -44 21
-50 7 -9 2 -16 -18 -23 -23 -9 -33 -7 -55 10 -37 27 -55 25 -75 -6 -16 -24
-20 -25 -76 -19 -38 5 -69 3 -87 -5 -16 -6 -46 -10 -67 -8 l-39 4 28 12 c28
12 37 32 15 32 -7 0 -26 -7 -43 -16 -26 -13 -72 -14 -375 -7 -190 4 -388 7
-440 7 -52 -1 -172 -3 -265 -4 -194 -3 -227 1 -240 33 -10 23 -40 41 -87 52
-24 6 -28 4 -28 -14 0 -14 9 -25 25 -31 14 -5 25 -14 25 -19 0 -14 -45 -20
-147 -19 -83 0 -95 3 -119 24 -22 21 -32 24 -75 18 -36 -5 -55 -2 -72 9 -15
10 -29 12 -38 6 -21 -13 -27 -11 -34 14 -4 12 -18 32 -33 44 -25 21 -25 23
-15 82 7 35 20 68 32 80 12 12 21 30 21 41 0 11 5 20 10 20 6 0 15 11 20 25 5
14 14 25 19 25 5 0 14 14 21 30 7 17 18 30 24 30 14 0 50 46 60 77 4 12 13 24
20 26 8 3 17 19 21 36 4 17 13 31 20 31 8 0 22 8 32 18 10 10 34 29 53 42 47
32 118 106 154 158 16 23 33 42 39 42 11 0 16 4 84 70 47 45 51 47 68 23 8
-11 14 -13 19 -4 4 6 0 14 -8 17 -22 8 -20 37 3 58 11 10 22 28 25 42 5 17 13
24 31 24 16 0 25 -6 25 -16z m3420 -43 c6 -12 7 -29 1 -43 -4 -13 -18 -57 -31
-98 -25 -86 -58 -168 -76 -190 -7 -8 -16 -28 -20 -45 -4 -16 -23 -50 -43 -74
-33 -42 -51 -69 -83 -131 -7 -14 -19 -30 -26 -35 -7 -6 -15 -28 -18 -50 -4
-22 -15 -58 -25 -81 -11 -23 -19 -62 -19 -92 0 -40 -4 -52 -15 -52 -16 0 -21
-46 -16 -165 1 -33 -2 -65 -6 -70 -9 -13 -113 -7 -113 6 0 4 15 12 33 17 30 8
32 11 35 59 3 44 0 54 -19 67 -22 15 -22 16 -4 36 24 27 5 50 -41 50 -32 0
-34 2 -34 34 0 42 -18 58 -59 50 -23 -5 -44 1 -85 22 -54 28 -55 28 -75 10
-23 -21 -27 -56 -10 -89 10 -18 8 -23 -10 -35 -23 -16 -28 -60 -11 -93 10 -18
7 -19 -60 -19 -38 0 -70 4 -70 10 0 5 7 30 16 56 14 41 14 56 4 106 -12 56
-12 59 14 93 29 38 40 39 115 9 31 -13 35 -13 48 6 8 11 35 26 60 33 26 8 48
18 50 23 6 22 -48 44 -126 50 -76 6 -83 5 -121 -20 -46 -30 -87 -34 -92 -8 -8
38 4 72 28 78 37 9 51 32 29 48 -27 19 -30 56 -5 56 11 0 20 -5 20 -11 0 -22
64 -89 85 -89 31 0 37 10 20 36 -14 22 -13 25 10 40 19 12 37 15 73 10 49 -6
112 1 112 13 0 4 -15 12 -32 19 -27 10 -40 9 -75 -4 -41 -16 -46 -16 -112 6
-39 12 -77 30 -86 40 -15 16 -14 18 7 24 13 3 39 6 58 6 22 0 42 7 51 19 10
11 37 21 67 25 28 3 63 13 79 21 15 8 42 15 58 15 17 0 48 9 70 20 22 11 44
19 48 20 5 0 20 9 34 20 14 11 41 20 59 20 23 0 37 6 44 20 6 11 18 20 27 20
9 0 37 19 64 43 26 23 63 56 83 72 20 17 39 40 42 52 5 20 19 29 51 32 7 0 17
-8 23 -18z m-3294 -83 c34 -28 84 -80 84 -88 0 -4 11 -11 25 -14 14 -4 25 -13
25 -20 0 -8 6 -17 13 -19 8 -4 8 -8 2 -14 -5 -4 -15 -17 -21 -28 -7 -13 -22
-20 -40 -20 -24 0 -30 5 -32 28 -2 15 -12 32 -23 37 -12 7 -19 21 -19 40 0 20
-8 35 -25 46 -24 16 -33 43 -18 57 9 9 12 9 29 -5z m255 -187 c13 -10 35 -22
49 -26 14 -4 36 -16 49 -26 13 -11 29 -19 36 -19 6 0 19 -8 29 -18 23 -26 180
-102 209 -102 9 0 23 -7 32 -16 9 -9 31 -20 48 -23 42 -9 49 -38 10 -46 -15
-3 -42 -13 -59 -21 -23 -11 -45 -14 -80 -9 -63 9 -90 26 -97 63 -5 23 -15 32
-51 46 -35 13 -50 15 -66 6 -17 -9 -21 -8 -27 7 -13 36 -23 43 -49 31 -19 -9
-28 -8 -43 6 -18 16 -19 15 -25 -18 -8 -41 -22 -48 -58 -29 -28 14 -37 46 -17
58 7 5 3 15 -11 30 l-22 23 31 18 c25 15 31 25 31 51 0 30 3 33 29 33 15 0 39
-8 52 -19z m1658 -297 c-6 -7 -19 -16 -30 -19 -27 -9 -24 -50 6 -73 29 -23 31
-41 9 -108 -22 -64 -31 -74 -65 -74 -34 0 -45 -28 -35 -89 7 -46 -10 -66 -49
-59 -14 3 -28 1 -31 -3 -3 -5 6 -9 19 -9 14 0 41 -7 60 -15 20 -8 57 -15 82
-15 25 0 45 -4 45 -10 0 -5 -19 -10 -43 -10 -23 0 -75 -9 -115 -20 -72 -20
-124 -19 -117 3 3 7 7 25 9 40 4 25 0 30 -30 43 -18 8 -34 18 -34 22 0 4 14
22 30 41 l30 33 -20 25 c-11 14 -20 34 -20 43 0 25 -21 39 -77 53 -45 11 -48
14 -57 54 -7 34 -14 44 -39 52 -16 6 -40 11 -52 11 -12 0 -31 13 -43 30 -12
16 -34 33 -47 36 -14 3 -25 12 -25 20 0 23 95 19 120 -6 11 -11 33 -20 49 -20
17 0 46 -10 66 -21 32 -19 44 -21 131 -14 67 5 97 11 101 21 3 8 18 14 34 14
16 0 33 8 41 19 17 24 78 42 96 28 9 -7 9 -13 1 -23z m207 7 c33 -65 91 -91
116 -51 8 12 24 20 40 20 23 0 28 -5 34 -35 3 -19 4 -41 1 -48 -6 -17 -72 -10
-88 9 -13 16 -45 19 -54 4 -3 -5 -22 -10 -40 -10 -28 0 -36 5 -41 24 -3 13 -4
30 -3 37 1 8 -1 22 -5 32 -10 22 0 50 17 45 6 -3 17 -15 23 -27z m203 -282
c22 -35 18 -55 -10 -64 -12 -4 -19 -16 -19 -32 0 -15 -8 -35 -17 -45 -15 -17
-15 -21 0 -53 9 -20 28 -41 42 -47 14 -6 25 -19 25 -30 0 -19 -29 -24 -120
-19 -54 3 -65 12 -56 45 5 19 13 26 31 26 33 0 52 43 34 77 -13 24 -13 24 -32
4 -20 -19 -20 -19 -41 12 -14 21 -30 32 -45 32 -36 0 -36 19 -2 57 23 25 30
29 31 16 0 -11 11 -20 28 -24 15 -3 33 -7 40 -10 8 -2 12 8 12 31 0 61 67 77
99 24z m637 -415 c4 -14 4 -60 2 -102 -4 -63 -9 -78 -27 -90 -11 -8 -21 -20
-21 -27 0 -7 -11 -15 -25 -17 -25 -5 -34 5 -15 17 6 3 10 19 10 36 0 21 5 29
18 30 10 0 12 3 5 6 -7 2 -13 12 -13 21 0 10 -18 36 -39 60 l-39 42 42 25 c55
33 94 33 102 -1z m-610 -85 c-7 -37 5 -55 50 -74 47 -20 57 -44 34 -83 -11
-18 -24 -32 -29 -32 -5 0 -14 -20 -20 -44 -15 -59 -26 -66 -95 -59 -63 7 -72
16 -57 56 12 32 24 34 58 7 14 -11 38 -20 54 -20 27 0 27 1 27 55 -1 60 -7 69
-56 80 -26 5 -31 10 -22 20 16 20 30 75 19 75 -5 0 -21 7 -35 17 -31 20 -16
33 40 33 38 0 38 0 32 -31z m-161 -309 c13 -21 -17 -40 -61 -40 -48 0 -74 -19
-74 -55 0 -28 -30 -48 -56 -38 -14 5 -16 16 -11 64 3 32 8 62 11 67 8 14 183
15 191 2z"/>
<path d="M3194 6565 c-32 -22 -37 -67 -13 -130 19 -50 75 -115 100 -115 17 0
23 32 12 61 -10 26 -8 31 14 49 27 21 30 68 3 61 -8 -2 -29 -6 -47 -9 l-32 -4
6 51 c6 56 -4 64 -43 36z"/>
<path d="M2781 5580 c-18 -4 -46 -21 -62 -37 l-29 -28 20 -33 c17 -27 25 -32
58 -32 33 0 45 7 80 46 47 50 51 68 23 84 -22 11 -41 11 -90 0z"/>
<path d="M831 4454 c-16 -20 -21 -40 -20 -83 1 -132 30 -219 112 -342 31 -47
57 -91 57 -97 0 -5 18 -33 40 -61 22 -28 40 -53 40 -56 0 -10 90 -142 105
-155 8 -7 15 -18 15 -25 0 -6 9 -20 20 -30 11 -10 20 -23 20 -30 0 -7 10 -23
23 -37 12 -13 47 -55 77 -93 30 -37 78 -91 105 -119 57 -59 109 -120 145 -172
14 -20 47 -57 75 -82 74 -69 227 -224 336 -337 95 -100 161 -160 274 -251 33
-26 62 -51 65 -55 3 -3 16 -12 29 -19 13 -6 44 -27 68 -46 25 -19 48 -34 53
-34 5 0 20 -10 34 -22 60 -56 122 -99 130 -90 18 17 4 53 -26 68 -18 9 -37 23
-41 30 -4 8 -16 14 -26 14 -10 0 -36 20 -57 44 -61 70 -101 124 -139 191 -15
28 -45 67 -67 88 -21 21 -38 47 -38 57 0 9 -7 23 -15 30 -8 7 -17 27 -21 46
-3 19 -10 37 -15 40 -14 8 -55 102 -80 183 -12 41 -33 86 -46 101 -13 16 -23
35 -23 44 0 9 -8 24 -18 34 -11 11 -22 40 -25 66 -4 26 -14 57 -22 69 -8 12
-15 31 -15 43 0 12 -9 32 -19 46 -11 13 -23 36 -26 51 -4 14 -13 31 -21 38 -8
6 -14 24 -14 40 0 19 -9 37 -25 51 -14 12 -25 32 -25 44 0 13 -5 26 -11 30 -7
4 -27 40 -46 80 -18 41 -38 74 -43 74 -6 0 -10 7 -10 15 0 8 -9 24 -20 35 -11
11 -22 31 -26 45 -3 14 -12 29 -19 33 -6 4 -18 19 -26 33 -44 82 -233 290
-276 303 -12 4 -38 22 -59 41 -21 19 -53 38 -71 41 -18 3 -33 10 -33 14 0 4
-15 13 -32 20 -18 8 -40 19 -48 26 -31 25 -135 54 -196 54 -56 0 -65 -3 -83
-26z m143 -43 c3 -4 24 -11 47 -15 23 -4 53 -16 67 -26 13 -11 35 -20 48 -20
13 0 24 -4 24 -10 0 -12 13 -11 -153 -15 -151 -5 -158 -2 -140 52 7 21 18 30
44 34 52 10 57 10 63 0z m296 -136 c17 -9 30 -19 30 -24 0 -5 13 -13 28 -19
26 -9 61 -40 123 -108 21 -23 25 -34 18 -53 -7 -17 -14 -21 -27 -15 -9 4 -35
9 -57 10 -70 6 -288 4 -327 -3 -50 -8 -95 13 -114 51 -8 17 -22 44 -31 60 -20
37 -8 78 26 86 13 3 71 2 130 -2 98 -7 108 -6 126 12 23 24 37 25 75 5z m264
-285 c31 0 96 -60 96 -88 0 -12 7 -25 15 -28 8 -3 17 -15 21 -27 4 -12 16 -34
27 -49 17 -23 19 -32 9 -53 l-12 -25 -187 -2 c-271 -3 -300 -1 -326 25 -12 12
-26 29 -32 38 -5 10 -25 38 -42 64 -18 25 -33 52 -33 60 0 7 -12 27 -26 44
-19 23 -22 32 -12 36 14 5 443 12 466 8 8 -2 24 -3 36 -3z m248 -357 c7 -16
20 -39 30 -52 10 -13 18 -33 18 -44 0 -11 9 -30 20 -42 11 -12 20 -38 22 -65
4 -62 -11 -68 -217 -76 l-170 -7 -65 73 c-36 40 -75 82 -87 93 -13 11 -23 26
-23 32 0 6 -11 22 -25 35 -60 56 -30 67 194 69 102 1 187 3 189 6 3 3 27 5 54
5 43 0 50 -3 60 -27z m142 -333 c19 -7 26 -17 26 -36 0 -14 14 -56 30 -94 34
-77 35 -87 15 -114 -11 -15 -33 -21 -102 -26 -84 -7 -90 -7 -123 18 -46 33
-55 41 -120 108 -104 105 -105 128 -8 138 35 3 100 6 146 5 45 -1 86 1 89 5 9
8 17 8 47 -4z m146 -329 c5 -11 10 -28 10 -37 0 -10 6 -25 14 -33 44 -49 18
-115 -44 -113 -21 0 -37 7 -43 19 -6 10 -34 41 -64 70 -31 30 -53 60 -53 72 0
18 6 21 48 22 26 1 61 5 77 9 17 4 33 8 37 9 4 0 12 -8 18 -18z"/>
<path d="M5791 2503 c-34 -7 -111 -71 -111 -94 0 -10 -9 -27 -20 -37 -18 -16
-19 -21 -6 -31 19 -16 64 -4 71 19 9 27 82 90 105 90 29 0 38 30 15 46 -10 8
-21 13 -24 13 -3 -1 -17 -4 -30 -6z"/>
<path d="M4260 4029 c-108 -7 -197 -30 -249 -64 -62 -39 -109 -89 -116 -120
-4 -16 -13 -47 -21 -68 -28 -74 -15 -196 27 -267 5 -8 17 -28 27 -44 24 -41
69 -86 85 -86 8 0 25 -8 38 -19 13 -10 40 -22 59 -26 19 -4 41 -12 49 -19 8
-6 53 -11 110 -11 83 0 101 3 134 24 20 12 37 26 37 31 0 4 12 13 28 19 39 16
77 68 91 125 7 27 19 62 27 77 10 20 14 64 14 159 l0 132 -30 28 c-17 16 -37
44 -45 64 -10 24 -24 38 -42 42 -15 4 -38 13 -52 20 -14 8 -37 13 -51 12 -14
-1 -68 -5 -120 -9z m157 -74 c28 -13 68 -41 88 -62 l36 -37 -4 -106 c-4 -115
-29 -217 -66 -268 -12 -17 -43 -45 -69 -63 -39 -27 -57 -32 -107 -33 l-60 -1
-3 179 c-2 123 1 183 9 192 6 8 30 19 53 26 22 6 53 25 68 42 26 27 27 31 13
52 -12 19 -22 104 -12 104 2 0 26 -11 54 -25z m-359 -120 c57 -17 62 -24 32
-43 -29 -18 -25 -32 9 -32 50 0 61 -32 66 -190 2 -58 7 -120 10 -137 5 -28 3
-33 -13 -33 -11 0 -22 7 -26 15 -3 8 -17 15 -31 15 -29 0 -64 33 -132 123 -45
60 -42 229 5 273 15 13 27 24 28 24 0 0 24 -7 52 -15z"/>
<path d="M1615 2025 c-39 -19 -54 -33 -63 -58 -7 -19 -23 -40 -37 -47 -19 -10
-22 -16 -13 -22 21 -13 36 -9 43 12 7 22 22 25 45 10 12 -8 11 -13 -8 -33 -28
-30 -28 -48 1 -75 46 -44 134 -20 121 33 -3 13 -1 33 6 44 9 18 7 23 -15 33
-28 13 -32 30 -10 48 8 7 15 28 15 46 0 42 -14 43 -85 9z"/>
<path d="M4666 1883 c-4 -14 -2 -226 3 -255 2 -12 29 -9 37 3 4 7 6 35 6 63
-1 28 4 68 11 89 8 22 11 54 8 75 -5 31 -11 38 -33 40 -18 2 -28 -2 -32 -15z"/>
<path d="M6133 7395 c-19 -14 -31 -249 -13 -270 15 -18 66 -20 76 -3 5 7 9 52
10 99 3 101 15 133 47 123 33 -10 37 -22 37 -116 0 -109 4 -118 45 -118 41 0
45 10 45 110 0 69 3 82 22 100 27 25 40 25 61 2 12 -13 18 -42 20 -104 4 -98
14 -120 55 -109 26 7 27 9 30 97 4 112 -3 150 -33 180 -29 29 -75 31 -131 8
-35 -15 -40 -15 -65 0 -30 18 -181 19 -206 1z"/>
<path d="M6707 7403 c-18 -3 -38 -19 -57 -45 -26 -35 -30 -50 -30 -102 0 -113
65 -167 181 -151 38 5 55 14 79 41 28 32 30 40 30 112 0 76 -1 79 -35 112 -29
28 -42 34 -87 36 -29 1 -66 0 -81 -3z m99 -75 c19 -14 26 -76 14 -112 -6 -19
-21 -38 -37 -45 -22 -10 -29 -9 -49 10 -19 18 -24 33 -24 75 0 44 4 56 26 73
24 19 45 19 70 -1z"/>
<path d="M7012 7402 c-24 -7 -62 -62 -62 -89 0 -27 66 -83 98 -83 46 0 90 -51
56 -64 -24 -9 -31 -7 -50 11 -17 18 -86 25 -100 10 -14 -13 21 -60 56 -75 24
-10 55 -13 99 -9 55 4 67 9 87 33 34 42 32 94 -4 121 -15 11 -46 24 -69 28
-23 3 -49 16 -59 27 -18 19 -18 20 0 34 20 14 45 6 74 -23 17 -16 33 -17 56 0
15 11 16 17 5 39 -6 15 -25 32 -42 38 -33 11 -108 12 -145 2z"/>
<path d="M7920 5525 c-9 -11 -7 -16 9 -27 12 -7 21 -19 21 -26 0 -7 7 -15 16
-19 20 -7 74 -62 74 -74 0 -5 7 -9 15 -9 8 0 15 -3 15 -8 0 -4 17 -26 39 -50
21 -23 46 -53 55 -66 18 -28 53 -43 68 -28 7 7 -1 22 -23 47 -90 98 -146 155
-155 155 -5 0 -20 16 -34 35 -14 18 -35 36 -47 40 -13 3 -23 12 -23 20 0 21
-16 27 -30 10z"/>
<path d="M7240 4617 c0 -18 29 -57 42 -57 6 0 20 -9 32 -21 40 -39 135 -109
148 -109 7 0 27 -9 43 -20 17 -11 38 -20 47 -20 10 0 32 -9 50 -20 18 -11 46
-20 61 -20 15 0 41 -7 58 -15 16 -9 66 -20 111 -25 44 -5 85 -14 92 -19 19
-16 157 -24 201 -12 116 30 150 43 167 61 10 11 22 20 26 20 15 0 39 59 35 84
-3 14 -7 26 -8 26 -2 0 -17 -13 -34 -29 -62 -58 -171 -96 -271 -94 -74 1 -234
25 -261 39 -16 8 -50 17 -76 21 -27 3 -57 12 -68 19 -11 6 -36 15 -55 19 -19
4 -44 14 -55 21 -11 8 -26 14 -34 14 -20 0 -83 43 -150 102 -53 46 -101 63
-101 35z"/>
<path d="M7760 3980 c0 -11 59 -70 70 -70 4 0 17 -9 30 -20 13 -11 29 -20 36
-20 7 0 38 -20 67 -44 40 -33 58 -41 66 -33 18 18 13 31 -20 57 -18 14 -40 33
-50 42 -10 10 -30 20 -44 24 -14 3 -30 15 -36 25 -5 11 -16 19 -23 19 -8 0
-19 7 -26 15 -14 17 -70 21 -70 5z"/>
<path d="M8704 3705 c-18 -15 -18 -16 15 -45 19 -16 48 -32 65 -36 17 -4 47
-15 66 -25 19 -11 42 -19 51 -19 9 0 28 -9 42 -20 14 -11 35 -20 47 -20 12 0
30 -5 41 -10 17 -10 19 -7 19 24 0 28 -4 35 -27 41 -14 3 -38 15 -51 26 -14
10 -37 19 -53 19 -15 0 -31 5 -34 10 -8 14 -127 70 -147 70 -8 0 -23 -7 -34
-15z"/>
<path d="M7147 3423 c-15 -14 -6 -33 18 -39 14 -3 25 -10 25 -15 0 -5 12 -15
28 -23 15 -8 44 -30 64 -50 20 -20 43 -36 51 -36 7 0 28 -11 47 -25 19 -14 37
-25 41 -25 4 0 30 -15 59 -34 28 -18 70 -37 92 -40 23 -4 47 -11 54 -17 6 -5
38 -14 70 -20 33 -6 70 -18 84 -27 19 -12 58 -17 170 -20 138 -4 147 -3 190
20 50 27 98 103 85 135 -6 16 -11 13 -38 -18 -59 -65 -101 -79 -240 -79 -93 0
-128 4 -144 15 -12 8 -43 18 -70 22 -26 3 -59 12 -73 19 -14 7 -42 15 -62 19
-21 4 -42 13 -48 20 -6 8 -26 17 -43 21 -18 3 -43 15 -56 25 -13 11 -32 19
-42 19 -11 0 -19 5 -19 10 0 6 -12 16 -27 22 -16 7 -46 27 -69 45 -23 18 -46
33 -51 33 -6 0 -22 11 -37 25 -27 25 -47 31 -59 18z"/>
<path d="M8213 3384 c-8 -21 10 -31 72 -39 27 -4 59 -13 70 -19 11 -7 37 -19
58 -26 26 -8 46 -23 59 -47 26 -44 54 -41 51 5 -2 45 -40 80 -124 114 -82 33
-175 39 -186 12z"/>
<path d="M8261 2852 c5 -15 26 -41 45 -57 20 -17 45 -38 57 -47 11 -10 27 -18
36 -18 9 0 52 -18 96 -40 44 -22 86 -40 93 -40 7 0 15 -7 18 -15 3 -8 34 -28
69 -45 35 -17 69 -37 75 -45 7 -8 23 -15 35 -15 12 0 34 -9 48 -20 14 -11 31
-20 39 -20 7 0 33 -9 57 -20 24 -11 61 -23 82 -26 38 -6 39 -6 39 22 0 27 -5
30 -73 52 -39 12 -78 22 -85 22 -8 0 -25 9 -39 20 -14 11 -35 20 -46 20 -11 0
-29 7 -39 17 -20 18 -50 36 -88 54 -14 6 -32 15 -40 20 -8 5 -34 18 -56 28
-23 11 -45 24 -48 30 -4 6 -15 11 -25 11 -10 0 -30 9 -44 20 -14 11 -32 20
-40 20 -7 0 -22 9 -32 20 -10 11 -23 20 -30 20 -7 0 -20 9 -30 20 -10 11 -26
20 -36 20 -10 0 -21 5 -24 10 -13 21 -24 9 -14 -18z"/>
<path d="M6924 2689 c-7 -12 12 -29 34 -29 6 0 22 -11 34 -25 12 -14 32 -25
47 -25 14 0 38 -6 53 -14 34 -18 102 -30 155 -27 31 2 50 -3 69 -18 20 -16 41
-21 85 -21 39 0 63 -5 73 -16 13 -12 48 -17 165 -21 150 -6 168 -3 155 30 -4
11 -31 17 -107 22 -56 3 -131 13 -167 21 -36 9 -94 14 -130 12 -56 -3 -67 0
-87 20 -20 20 -59 28 -115 23 -9 -1 -29 5 -43 15 -14 9 -54 19 -90 22 -43 3
-65 9 -65 17 0 23 -53 34 -66 14z"/>
<path d="M6466 2303 c-21 -22 28 -80 82 -97 12 -4 22 -11 22 -16 0 -4 17 -15
38 -24 20 -9 44 -20 52 -25 109 -68 333 -128 530 -142 159 -11 569 4 603 22
12 7 58 16 102 20 44 4 94 14 110 23 17 9 37 16 46 16 8 0 24 6 35 14 51 38
-54 53 -153 22 -26 -9 -101 -20 -165 -25 -65 -6 -127 -15 -138 -21 -27 -15
-464 -18 -481 -3 -8 6 -63 16 -124 23 -60 7 -119 18 -130 25 -11 7 -39 16 -62
20 -23 4 -47 13 -54 21 -6 8 -19 14 -28 14 -19 0 -187 82 -211 102 -20 18 -67
37 -74 31z"/>
<path d="M9005 1813 c-11 -3 -46 -14 -77 -24 -32 -10 -70 -19 -85 -19 -16 0
-39 -7 -51 -16 -13 -9 -56 -20 -97 -25 -40 -5 -89 -16 -109 -24 -19 -8 -57
-15 -83 -15 -26 -1 -66 -8 -88 -16 -22 -9 -65 -20 -95 -26 -30 -5 -69 -16 -87
-24 -17 -8 -43 -14 -57 -14 -15 0 -43 -7 -64 -16 -36 -16 -295 -30 -622 -34
-134 -2 -351 13 -369 25 -8 5 -56 12 -105 16 -61 5 -104 14 -131 28 -21 12
-46 21 -55 21 -9 0 -25 7 -37 15 -11 8 -39 17 -61 21 -23 3 -49 15 -58 25 -20
23 -67 25 -84 4 -10 -13 -7 -17 25 -31 21 -8 44 -22 52 -30 8 -8 21 -14 28
-14 8 0 35 -11 61 -25 26 -14 54 -25 63 -25 9 0 25 -6 36 -14 11 -7 39 -17 63
-21 23 -4 55 -13 70 -20 16 -8 97 -18 202 -24 96 -5 202 -15 235 -21 62 -12
152 -10 485 10 186 11 217 16 300 44 69 23 181 49 390 90 36 7 74 17 85 23 11
6 47 14 80 18 33 4 79 15 102 26 23 10 58 19 77 19 19 0 51 8 70 18 30 14 36
22 36 50 0 32 -4 35 -45 25z"/>
<path d="M5511 1431 c-12 -8 -12 -12 -2 -25 8 -9 20 -16 29 -16 8 0 24 -8 34
-17 14 -13 48 -18 141 -24 67 -4 142 -12 167 -17 25 -5 110 -13 190 -16 80 -4
175 -14 211 -23 60 -14 74 -14 160 1 73 12 108 13 154 6 33 -6 130 -15 215
-20 156 -10 276 -33 380 -72 109 -41 126 -47 210 -72 107 -33 277 -42 354 -19
28 8 62 16 76 16 35 3 85 36 73 48 -6 6 -50 13 -99 16 -69 4 -98 2 -128 -11
-47 -20 -108 -21 -144 -2 -15 7 -51 16 -81 20 -30 4 -63 14 -75 22 -11 8 -27
14 -36 14 -8 0 -31 8 -50 19 -19 10 -51 22 -70 26 -19 4 -51 16 -70 26 -24 13
-55 19 -101 19 -39 0 -83 7 -105 16 -33 14 -97 17 -419 20 -209 2 -432 8 -495
13 -63 5 -178 15 -255 21 -77 7 -154 18 -172 26 -36 16 -72 18 -92 5z"/>
<path d="M5023 1244 c-21 -9 -15 -34 10 -43 12 -5 77 -12 145 -16 110 -6 126
-5 143 11 22 19 25 44 6 44 -7 0 -75 2 -152 4 -77 3 -146 3 -152 0z"/>
<path d="M8103 1216 c-95 -11 -120 -23 -110 -50 6 -14 64 -16 532 -16 l525 0
0 38 0 39 -427 0 c-245 0 -468 -5 -520 -11z"/>
<path d="M6142 1187 c-7 -8 -15 -64 -18 -133 -3 -66 -11 -135 -19 -156 -8 -20
-17 -60 -21 -90 -4 -29 -11 -59 -17 -66 -6 -7 -18 -48 -28 -90 -18 -83 -31
-124 -60 -188 -11 -23 -19 -47 -19 -55 -1 -8 -9 -32 -20 -54 -11 -22 -19 -48
-20 -57 0 -9 -6 -21 -14 -25 -7 -4 -27 -33 -43 -63 -16 -30 -42 -75 -59 -99
-16 -24 -34 -52 -39 -61 -6 -10 -17 -25 -24 -34 -12 -14 -9 -16 31 -16 38 0
46 4 61 29 9 16 17 34 17 40 0 7 18 37 41 67 23 31 54 81 71 112 16 31 33 61
37 67 5 5 12 31 15 57 4 25 13 52 21 58 8 7 17 28 21 49 3 20 12 45 19 57 7
11 17 43 21 70 4 26 15 66 25 89 10 22 19 61 19 87 0 26 8 69 17 95 12 35 17
80 17 168 -1 126 -10 169 -32 142z"/>
<path d="M3300 1180 c-8 -6 -35 -7 -60 -4 l-45 7 24 -20 c24 -20 24 -22 9 -45
l-17 -25 51 -6 c28 -4 59 -2 69 4 14 7 29 5 56 -10 43 -21 121 -23 145 -3 9 7
18 24 21 37 3 20 0 25 -17 25 -11 0 -30 -7 -40 -15 -18 -13 -24 -12 -62 10
-23 14 -50 25 -59 25 -8 0 -26 7 -38 15 -15 9 -27 11 -37 5z"/>
<path d="M6262 1165 c-7 -14 -12 -57 -12 -94 0 -38 -7 -87 -15 -110 -8 -23
-19 -85 -24 -137 -6 -53 -19 -119 -29 -148 -49 -128 -48 -149 4 -110 22 17 34
35 34 51 0 13 7 38 17 56 10 21 18 67 21 132 3 56 11 109 18 120 20 31 29 225
12 248 -13 18 -15 17 -26 -8z"/>
<path d="M8511 994 c-16 -26 -32 -67 -36 -91 -5 -37 -19 -67 -68 -148 -53 -87
-71 -115 -78 -115 -4 0 -11 -10 -15 -22 -4 -13 -30 -48 -59 -78 -65 -68 -105
-115 -105 -125 0 -24 -226 -261 -286 -300 -29 -19 -71 -53 -95 -75 l-43 -40
50 0 c43 0 55 4 79 30 16 17 34 30 41 30 12 0 264 242 264 254 0 8 72 93 161
191 63 69 145 190 161 238 6 18 19 41 29 53 14 15 19 36 19 81 0 42 5 64 15
73 17 14 20 75 5 85 -5 3 -23 -15 -39 -41z"/>
<path d="M3412 917 c-12 -12 -33 -37 -45 -56 -12 -19 -42 -47 -67 -61 -41 -24
-45 -30 -45 -66 0 -37 1 -39 35 -42 19 -2 61 2 93 9 73 15 88 36 94 127 5 61
3 69 -19 89 l-24 23 -22 -23z"/>
<path d="M2275 912 c-3 -11 -17 -24 -31 -31 -16 -7 -34 -31 -49 -66 -19 -43
-31 -56 -52 -61 -16 -3 -37 -8 -48 -11 -11 -3 -40 -27 -65 -54 -45 -48 -45
-48 -88 -38 -62 14 -162 6 -195 -15 -33 -22 -33 -25 3 -54 24 -18 33 -21 49
-12 18 9 21 6 31 -29 6 -22 15 -43 20 -46 6 -3 10 -25 10 -48 l-1 -42 -15 28
c-20 36 -29 34 -42 -12 -16 -53 -15 -65 8 -86 11 -10 20 -25 20 -33 0 -9 9
-26 21 -38 19 -20 19 -23 4 -38 -12 -11 -35 -16 -79 -16 -73 0 -102 16 -93 50
7 26 -7 50 -28 50 -7 0 -15 -9 -18 -20 -5 -20 -32 -26 -55 -12 -9 6 -4 16 18
37 40 38 41 86 3 120 -35 31 -54 31 -81 2 -37 -40 -42 -68 -19 -110 11 -20 28
-37 36 -37 9 0 -4 -9 -28 -21 -42 -19 -44 -21 -27 -37 11 -11 39 -19 78 -22
56 -4 63 -7 68 -30 4 -18 18 -29 50 -41 87 -32 101 -39 106 -54 4 -8 1 -22 -6
-30 -11 -13 -8 -15 18 -15 17 0 43 7 59 14 15 8 37 18 48 22 18 6 17 7 -8 15
-49 14 -57 26 -40 59 14 30 46 45 79 38 12 -2 21 -17 26 -44 l8 -40 51 47 c43
40 50 52 52 87 1 31 -5 47 -22 66 l-23 25 32 19 32 20 -23 16 c-13 9 -31 16
-41 16 -9 0 -20 5 -23 10 -3 6 -15 10 -27 10 -17 0 -20 5 -16 32 7 45 -20 97
-49 98 -40 0 -25 15 27 27 40 10 60 9 105 -3 88 -22 107 -19 85 16 -12 19 6
40 35 40 14 0 25 -7 28 -20 4 -16 14 -20 46 -20 l41 0 0 53 c0 47 4 57 34 86
l34 33 14 -43 c10 -31 21 -45 38 -49 15 -4 27 -17 35 -40 9 -27 17 -35 36 -35
18 0 23 5 21 20 -14 97 -14 109 4 161 17 50 17 55 2 70 -25 25 -44 11 -57 -41
-16 -64 -31 -47 -31 35 0 38 -5 72 -11 75 -5 4 -24 1 -41 -6 -27 -11 -32 -10
-43 4 -16 22 -32 22 -40 -1z"/>
<path d="M8002 895 c-7 -14 -12 -31 -12 -37 0 -6 -20 -36 -45 -67 -25 -31 -53
-66 -63 -79 -27 -36 -101 -106 -123 -116 -10 -5 -19 -12 -19 -17 0 -8 -139
-132 -184 -164 -16 -11 -41 -30 -56 -42 -15 -13 -30 -23 -34 -23 -5 0 -34 -20
-150 -103 -79 -57 -126 -85 -158 -98 -16 -6 -28 -15 -28 -19 0 -5 -13 -11 -29
-15 -16 -3 -35 -13 -42 -21 -6 -8 -19 -14 -29 -14 -9 0 -43 -11 -76 -24 -32
-13 -80 -27 -106 -30 -26 -4 -50 -12 -54 -18 -4 -7 36 -9 128 -7 114 3 138 7
163 24 17 11 41 26 55 33 14 7 43 24 65 37 22 13 56 33 76 44 20 11 49 31 65
44 16 13 43 31 59 40 17 8 43 27 58 41 15 14 41 33 58 41 16 9 29 20 29 25 0
5 20 19 45 30 24 11 55 30 69 43 13 12 54 49 91 82 37 33 78 71 91 85 62 66
84 91 84 98 0 4 25 34 55 67 55 60 55 60 53 119 -3 65 -18 81 -36 41z"/>
<path d="M2563 735 c-6 -18 1 -91 12 -117 5 -12 -2 -21 -24 -33 -38 -19 -39
-33 -6 -41 40 -10 58 2 53 36 -5 35 -1 35 66 15 53 -16 86 -12 86 9 0 8 -13
19 -30 26 -41 17 -38 38 8 45 20 4 42 8 47 10 6 1 25 -4 44 -11 18 -8 51 -14
73 -14 24 0 37 -4 33 -10 -3 -5 -22 -10 -41 -10 -27 0 -36 -5 -44 -24 -6 -18
-20 -27 -45 -32 -20 -3 -35 -12 -35 -20 0 -13 6 -16 85 -30 l40 -8 -48 -6
c-46 -6 -67 -20 -67 -47 0 -18 -37 -26 -96 -18 -45 5 -56 11 -66 33 -10 20
-21 27 -43 27 -27 0 -30 -3 -33 -37 -3 -35 -6 -38 -45 -49 -69 -19 -74 -23
-29 -27 35 -3 45 -8 57 -33 12 -22 23 -29 44 -29 16 0 34 -7 41 -15 7 -8 21
-15 32 -15 27 0 35 30 13 46 -17 13 -13 14 32 14 51 0 72 -13 86 -53 4 -9 17
-17 29 -17 13 0 29 -4 36 -9 17 -11 -7 -21 -48 -21 -19 0 -31 -6 -35 -19 -8
-27 -34 -34 -61 -16 -13 8 -33 15 -44 15 -12 0 -29 4 -38 9 -11 6 -25 5 -40
-3 l-23 -12 39 -39 c36 -35 38 -40 26 -63 -16 -32 -10 -46 30 -67 28 -15 38
-16 69 -6 41 14 47 26 18 36 -21 6 -34 52 -18 62 6 4 17 -3 25 -15 17 -26 39
-28 70 -6 22 15 25 15 47 -6 l24 -23 41 22 c24 12 59 21 87 21 37 0 43 3 34
13 -6 8 -8 16 -5 19 3 4 -7 25 -21 48 -19 30 -24 45 -16 53 7 7 12 5 17 -6 10
-26 33 -20 45 10 9 25 7 30 -17 50 l-28 22 29 11 c17 6 36 13 43 15 10 4 10
10 2 25 -8 15 -17 19 -35 14 -18 -4 -25 -2 -25 7 0 10 16 14 58 14 55 0 57 -1
54 -26 -4 -33 12 -45 68 -53 51 -7 66 2 119 71 29 39 31 44 14 49 -10 3 -26
10 -35 15 -10 5 -31 9 -48 9 -29 0 -30 1 -25 38 5 34 2 40 -39 73 -38 31 -53
37 -112 42 -60 6 -73 10 -96 36 -28 31 -47 31 -121 2 -40 -16 -77 -14 -77 4 0
29 -84 48 -118 27 -13 -9 -6 -42 9 -42 18 0 9 -18 -12 -23 -34 -9 -49 3 -49
39 0 28 -4 34 -20 34 -11 0 -23 -7 -27 -15z"/>
<path d="M9008 694 c-21 -30 -41 -73 -44 -97 -4 -23 -15 -53 -26 -66 -10 -13
-18 -37 -18 -53 0 -17 -9 -41 -20 -55 -11 -14 -20 -40 -20 -57 0 -17 -9 -44
-20 -61 -11 -16 -20 -39 -20 -50 0 -11 -7 -33 -16 -50 -8 -16 -20 -54 -25 -82
-6 -29 -16 -65 -24 -80 -21 -39 -19 -43 19 -43 40 0 51 12 60 65 9 55 45 175
62 207 8 14 14 37 14 50 0 13 8 39 19 58 10 19 21 49 25 67 4 17 16 48 27 69
10 21 19 49 19 63 0 13 7 32 16 42 11 12 14 33 12 73 l-3 55 -37 -55z"/>
</g>
</svg>
